<svg width="149" height="27" viewBox="0 0 149 27" fill="none" xmlns="http://www.w3.org/2000/svg"><path d="M12.784 6.892V26H6.97V6.892H.17V1.928h19.414v4.964h-6.8zm17.556 8.704c0-.884-.283-1.643-.85-2.278-.544-.635-1.371-.952-2.482-.952-.544 0-1.043.09-1.496.272-.453.159-.85.385-1.19.68-.34.295-.612.646-.816 1.054a2.913 2.913 0 0 0-.34 1.224h7.174zm5.134 2.142v.68c0 .227-.011.442-.034.646H23.166c.045.476.181.907.408 1.292.25.385.555.725.918 1.02a5.09 5.09 0 0 0 1.258.646c.476.159.963.238 1.462.238.884 0 1.632-.159 2.244-.476.612-.34 1.11-.77 1.496-1.292l3.876 2.448c-.793 1.156-1.847 2.051-3.162 2.686-1.292.612-2.8.918-4.522.918-1.27 0-2.47-.193-3.604-.578a9.336 9.336 0 0 1-2.992-1.734c-.839-.77-1.507-1.711-2.006-2.822-.476-1.11-.714-2.38-.714-3.808 0-1.383.238-2.63.714-3.74.476-1.133 1.122-2.085 1.938-2.856a8.505 8.505 0 0 1 2.89-1.836c1.11-.43 2.312-.646 3.604-.646 1.247 0 2.391.215 3.434.646a7.294 7.294 0 0 1 2.686 1.802c.748.793 1.326 1.757 1.734 2.89.43 1.133.646 2.425.646 3.876zm13.42-3.672a6.212 6.212 0 0 0-1.598-1.088 4.411 4.411 0 0 0-1.938-.442 3.52 3.52 0 0 0-1.462.306c-.43.204-.646.555-.646 1.054 0 .476.238.816.714 1.02.498.204 1.292.43 2.38.68.634.136 1.27.329 1.904.578.657.25 1.247.578 1.768.986.521.408.94.907 1.258 1.496.317.59.476 1.292.476 2.108 0 1.065-.215 1.972-.646 2.72a5.287 5.287 0 0 1-1.7 1.768c-.68.453-1.45.782-2.312.986-.861.204-1.723.306-2.584.306a13.22 13.22 0 0 1-4.08-.646c-1.315-.453-2.414-1.11-3.298-1.972l3.128-3.298c.498.544 1.11.997 1.836 1.36a5.1 5.1 0 0 0 2.312.544c.453 0 .895-.102 1.326-.306.453-.227.68-.612.68-1.156 0-.521-.272-.907-.816-1.156-.544-.25-1.394-.51-2.55-.782a13.167 13.167 0 0 1-1.768-.544 5.871 5.871 0 0 1-1.598-.918 4.683 4.683 0 0 1-1.122-1.428c-.295-.567-.442-1.247-.442-2.04 0-1.02.215-1.881.646-2.584a5.413 5.413 0 0 1 1.666-1.768 7.13 7.13 0 0 1 2.244-.986 9.484 9.484 0 0 1 2.482-.34c1.27 0 2.504.204 3.706.612 1.224.385 2.255.975 3.094 1.768l-3.06 3.162zm12.127-.816v6.46c0 .793.147 1.394.442 1.802.317.385.873.578 1.666.578.272 0 .555-.023.85-.068a2.99 2.99 0 0 0 .782-.204l.068 4.08a8.26 8.26 0 0 1-1.462.34c-.59.113-1.179.17-1.768.17-1.133 0-2.085-.136-2.856-.408-.77-.295-1.394-.703-1.87-1.224a5.083 5.083 0 0 1-.986-1.904c-.204-.748-.306-1.575-.306-2.482v-7.14h-2.72V9.068h2.686V4.614h5.474v4.454h3.978v4.182h-3.978zm13.704 7.854h.068l5.644-19.176h3.706l5.61 19.176h.068l5.304-19.176h3.57L91.623 26h-3.502L82.273 6.654h-.068L76.357 26h-3.502L65.783 1.928h3.638l5.304 19.176zm42.165-3.196c0 1.247-.226 2.391-.68 3.434a7.994 7.994 0 0 1-1.836 2.72 8.44 8.44 0 0 1-2.754 1.768 9.519 9.519 0 0 1-3.434.612 9.523 9.523 0 0 1-3.434-.612 8.461 8.461 0 0 1-2.754-1.768 8.746 8.746 0 0 1-1.836-2.72c-.43-1.043-.646-2.187-.646-3.434 0-1.247.216-2.38.646-3.4a8.338 8.338 0 0 1 1.836-2.686 8.026 8.026 0 0 1 2.754-1.734 9.078 9.078 0 0 1 3.434-.646c1.224 0 2.369.215 3.434.646a8.007 8.007 0 0 1 2.754 1.734 7.646 7.646 0 0 1 1.836 2.686c.454 1.02.68 2.153.68 3.4zm-3.332 0c0-.77-.124-1.507-.374-2.21a5.169 5.169 0 0 0-1.02-1.836 4.84 4.84 0 0 0-1.7-1.292c-.657-.317-1.416-.476-2.278-.476-.861 0-1.632.159-2.312.476a4.938 4.938 0 0 0-1.666 1.292 5.656 5.656 0 0 0-1.054 1.836 7.174 7.174 0 0 0-.34 2.21c0 .77.114 1.507.34 2.21.25.703.601 1.326 1.054 1.87a4.938 4.938 0 0 0 1.666 1.292c.68.317 1.451.476 2.312.476.862 0 1.621-.159 2.278-.476a4.84 4.84 0 0 0 1.7-1.292 5.528 5.528 0 0 0 1.02-1.87c.25-.703.374-1.44.374-2.21zm7.764-4.556c0-.43-.011-.986-.034-1.666a32.84 32.84 0 0 0-.102-1.802h3.026c.046.408.08.884.102 1.428.023.521.034.952.034 1.292h.102a5.51 5.51 0 0 1 1.972-2.278 5.216 5.216 0 0 1 2.958-.884c.499 0 .918.045 1.258.136l-.136 2.958a6.01 6.01 0 0 0-1.462-.17c-.77 0-1.439.147-2.006.442a4.098 4.098 0 0 0-1.428 1.122 4.996 4.996 0 0 0-.816 1.666 6.8 6.8 0 0 0-.272 1.938V26h-3.196V13.352zm15.583 3.536h.102l6.766-7.004h4.284l-7.548 7.31L148.703 26h-4.42l-7.276-8.364h-.102V26h-3.196V.296h3.196v16.592z" fill="#37C491"/></svg>