<svg width="79" height="80" viewBox="0 0 79 80" fill="none" xmlns="http://www.w3.org/2000/svg"><path fill-rule="evenodd" clip-rule="evenodd" d="M27.352 38.636c-3.028-3.42-7.065-5.303-11.37-5.303-4.306 0-8.343 1.883-11.37 5.303-6.15 6.948-6.15 18.25 0 25.199l11.37 12.844L27.35 63.835c6.15-6.948 6.15-18.251.001-25.199zm-1.997 23.43l-9.372 10.589-9.374-10.588c-5.288-5.972-5.288-15.691 0-21.663C9.123 37.564 12.452 36 15.981 36c3.53 0 6.86 1.564 9.372 4.404 5.288 5.972 5.288 15.69.002 21.663zm38.965-29.39l8.619-9.715c4.637-5.226 4.637-13.728 0-18.954C70.645 1.423 67.584 0 64.319 0c-3.264 0-6.326 1.423-8.619 4.007-4.637 5.226-4.637 13.728 0 18.954l8.62 9.715zM57.695 5.777c1.78-2.006 4.132-3.11 6.624-3.11 2.493 0 4.845 1.104 6.625 3.11 3.77 4.25 3.77 11.164 0 15.414l-6.624 7.468-6.625-7.468c-3.77-4.25-3.77-11.164 0-15.414zM69.463 72.69a1.333 1.333 0 0 0-1.594 1.007 4.627 4.627 0 0 1-.884 1.856 1.332 1.332 0 1 0 2.096 1.648 7.346 7.346 0 0 0 1.39-2.917 1.334 1.334 0 0 0-1.008-1.595zM41.984 41.333a4.69 4.69 0 0 1-1.67-.306 1.338 1.338 0 0 0-1.72.77 1.336 1.336 0 0 0 .77 1.722c.835.317 1.713.48 2.617.481h.476a1.332 1.332 0 1 0 0-2.667h-.473zm-3.165-8.432c.241 0 .484-.065.704-.201a4.603 4.603 0 0 1 1.938-.67 1.335 1.335 0 0 0 1.18-1.473 1.335 1.335 0 0 0-1.472-1.18 7.232 7.232 0 0 0-3.058 1.059 1.333 1.333 0 0 0 .708 2.465zM23.41 77.333h-2.667a1.332 1.332 0 1 0 0 2.667h2.666a1.333 1.333 0 1 0 0-2.667zm23.905-24c-.115 0-.228.003-.342.008a1.333 1.333 0 0 0 .054 2.666c.018 0 .037 0 .056-.002L49.695 56a1.332 1.332 0 1 0 0-2.667h-2.38zM46.648 32h2.667a1.332 1.332 0 1 0 0-2.667h-2.667c-.737 0-1.333.596-1.333 1.334 0 .737.596 1.333 1.333 1.333zm16.38 21.333c-.737 0-1.333.596-1.333 1.334 0 .737.596 1.333 1.333 1.333h2.667a1.332 1.332 0 1 0 0-2.667h-2.667zm4.764-10.666c0-.738-.596-1.334-1.333-1.334h-2.667a1.332 1.332 0 1 0 0 2.667h2.667c.736 0 1.333-.596 1.333-1.333zM55.028 56h2.667a1.332 1.332 0 1 0 0-2.667h-2.667a1.332 1.332 0 1 0 0 2.667zm2.287-24a1.332 1.332 0 1 0 0-2.667h-2.667c-.737 0-1.333.596-1.333 1.334 0 .737.596 1.333 1.333 1.333h2.667zm-9.523 9.333a1.332 1.332 0 1 0 0 2.667h2.667a1.332 1.332 0 1 0 0-2.667h-2.667zm12 1.334c0-.738-.596-1.334-1.333-1.334h-2.667a1.332 1.332 0 1 0 0 2.667h2.667c.736 0 1.333-.596 1.333-1.333zm18.767 4.843a1.332 1.332 0 1 0-2.634.422c.038.237.059.479.056.736 0 .448-.064.89-.189 1.317a1.333 1.333 0 1 0 2.56.75 7.352 7.352 0 0 0 .296-2.058 7.092 7.092 0 0 0-.09-1.168zM55.41 77.333h-2.667a1.332 1.332 0 1 0 0 2.667h2.666a1.333 1.333 0 1 0 0-2.667zm-8 0h-2.667a1.332 1.332 0 1 0 0 2.667h2.666a1.333 1.333 0 1 0 0-2.667zm14.667-10.666c0-.738-.596-1.334-1.333-1.334h-2.667a1.332 1.332 0 1 0 0 2.667h2.667c.736 0 1.333-.596 1.333-1.333zm-8 0c0-.738-.596-1.334-1.333-1.334h-2.667a1.332 1.332 0 1 0 0 2.667h2.667c.736 0 1.333-.596 1.333-1.333zm9.238 10.666H60.74c-.737 0-1.333.596-1.333 1.334 0 .737.596 1.333 1.333 1.333l2.628-.001.039-1.334V80c.737 0 1.287-.596 1.287-1.334 0-.736-.643-1.332-1.38-1.332zm4.717-7.041a1.333 1.333 0 0 0 1.047-2.157 7.393 7.393 0 0 0-2.506-2.038 1.334 1.334 0 0 0-1.188 2.388c.618.306 1.17.755 1.596 1.299.264.333.655.508 1.051.508zm5.085-17.32a4.63 4.63 0 0 1-1.802.361h-.287c-.737 0-1.333.596-1.333 1.334 0 .737.596 1.333 1.333 1.333h.287a7.28 7.28 0 0 0 2.833-.57 1.332 1.332 0 1 0-1.03-2.458zM36.696 39.807a1.335 1.335 0 0 0 .85-1.684 4.66 4.66 0 0 1-.194-2.05 1.332 1.332 0 0 0-1.156-1.489 1.327 1.327 0 0 0-1.49 1.156 7.34 7.34 0 0 0 .305 3.216 1.335 1.335 0 0 0 1.685.85zM31.41 77.333h-2.667a1.332 1.332 0 1 0 0 2.667h2.666a1.333 1.333 0 1 0 0-2.667zm13.41-9.874a1.333 1.333 0 0 0 .556-2.546 4.716 4.716 0 0 1-1.637-1.248 1.332 1.332 0 1 0-2.042 1.716 7.384 7.384 0 0 0 2.57 1.956c.18.082.368.122.553.122zm30.165-25.142a7.25 7.25 0 0 0-3.09-.962 1.333 1.333 0 1 0-.208 2.659 4.59 4.59 0 0 1 1.96.61 1.334 1.334 0 0 0 1.337-2.307zM39.41 77.333h-2.667a1.332 1.332 0 1 0 0 2.667h2.666a1.333 1.333 0 1 0 0-2.667zm3.32-17.548c.133-.685.41-1.318.826-1.884a1.334 1.334 0 0 0-2.148-1.58 7.307 7.307 0 0 0-1.297 2.963 1.335 1.335 0 0 0 1.31 1.585 1.342 1.342 0 0 0 1.31-1.084z" fill="#ECB84C"/><path fill-rule="evenodd" clip-rule="evenodd" d="M64.648 20c4.043 0 7.333-3.29 7.333-7.333s-3.29-7.334-7.333-7.334-7.333 3.291-7.333 7.334c0 4.042 3.29 7.333 7.333 7.333zm0-12a4.672 4.672 0 0 1 4.667 4.667 4.672 4.672 0 0 1-4.667 4.666 4.672 4.672 0 0 1-4.667-4.666A4.673 4.673 0 0 1 64.648 8zM15.981 41.333c-4.412 0-8 3.588-8 8s3.588 8 8 8 8-3.588 8-8-3.588-8-8-8zm0 13.334a5.339 5.339 0 0 1-5.333-5.334A5.339 5.339 0 0 1 15.981 44a5.339 5.339 0 0 1 5.334 5.333 5.339 5.339 0 0 1-5.334 5.334z" fill="#ECB84C"/></svg>