<svg width="17" height="16" viewBox="0 0 17 16" fill="none" xmlns="http://www.w3.org/2000/svg"><path fill-rule="evenodd" clip-rule="evenodd" d="M17 7.448c0 4.107-3.813 7.449-8.5 7.449a9.443 9.443 0 0 1-3.469-.648C3.103 15.332.437 15.706.323 15.72a.284.284 0 0 1-.293-.15.27.27 0 0 1 .053-.318c.652-.634 1.1-1.973 1.268-3.776C.466 10.274 0 8.884 0 7.448 0 3.341 3.813 0 8.5 0 13.187 0 17 3.341 17 7.448zm-11.333 0c0-.608-.509-1.103-1.134-1.103-.625 0-1.133.495-1.133 1.103 0 .609.508 1.104 1.133 1.104s1.134-.495 1.134-1.104zm3.966 0c0-.608-.508-1.103-1.133-1.103s-1.133.495-1.133 1.103c0 .609.508 1.104 1.133 1.104s1.133-.495 1.133-1.104zm3.967 0c0-.608-.508-1.103-1.133-1.103s-1.134.495-1.134 1.103c0 .609.509 1.104 1.134 1.104.625 0 1.133-.495 1.133-1.104z" fill="#D3D3D3"/></svg>