<svg width="16" height="16" viewBox="0 0 16 16" fill="none" xmlns="http://www.w3.org/2000/svg"><path fill-rule="evenodd" clip-rule="evenodd" d="M7.944 9.535a1.59 1.59 0 1 0 1.291-2.518 1.588 1.588 0 0 0-1.29-.663c-.53 0-1 .262-1.29.663a1.591 1.591 0 0 0 1.289 2.518zm3.473-3.536V4.467h-.2l-1.332.005.005 1.532 1.527-.005z" fill="#D3D3D3"/><path fill-rule="evenodd" clip-rule="evenodd" d="M7.944 0C3.564 0 0 3.564 0 7.944s3.564 7.945 7.944 7.945 7.945-3.564 7.945-7.945C15.889 3.564 12.325 0 7.944 0zm4.518 7.017v3.7c0 .963-.783 1.746-1.746 1.746H5.173a1.748 1.748 0 0 1-1.747-1.747V5.173c0-.963.783-1.746 1.747-1.746h5.543c.963 0 1.746.783 1.746 1.746v1.844z" fill="#D3D3D3"/><path fill-rule="evenodd" clip-rule="evenodd" d="M10.416 7.944a2.474 2.474 0 0 1-2.472 2.472 2.474 2.474 0 0 1-2.289-3.399H4.306v3.7c0 .478.388.865.866.865h5.544a.866.866 0 0 0 .866-.866V7.018h-1.35c.118.286.184.6.184.927z" fill="#D3D3D3"/></svg>