<svg xmlns="http://www.w3.org/2000/svg"><symbol id="icon-arrow" viewBox="0 0 32 32">
<path fill-rule="evenodd" clip-rule="evenodd" d="M0 14H24.4L13.2 2.8L16 0L32 16L16 32L13.2 29.2L24.4 18H0V14Z" fill="#FAFAFA"/>
</symbol><symbol id="icon-bookings" viewBox="0 0 94 72">
<path fill-rule="evenodd" clip-rule="evenodd" d="M93.5271 25.1102C93.05 24.2279 92.2594 23.5845 91.3007 23.2992L13.6323 0.177142C13.2857 0.0740558 12.9275 0.0214844 12.5681 0.0214844C10.923 0.0214844 9.44763 1.12846 8.97991 2.71314L0.154605 32.6098C-0.403478 34.5006 0.596154 36.4869 2.399 37.1835V68.2014C2.399 70.2741 4.07825 71.9607 6.14238 71.9607H87.1517C89.2159 71.9607 90.8951 70.2741 90.8951 68.2014V37.9015L93.8259 27.9723C94.1107 27.0091 94.0044 25.9927 93.5271 25.1102ZM88.164 68.2014C88.164 68.7618 87.7099 69.2178 87.1518 69.2178H66.3025V67.5817C66.3025 66.8244 65.6912 66.2103 64.9369 66.2103C64.1826 66.2103 63.5713 66.8244 63.5713 67.5817V69.2178H6.14228C5.58419 69.2178 5.13013 68.7618 5.13013 68.2014V38.0123L17.7566 41.7712L16.8728 42.6587L10.6982 41.9794L9.41953 43.0192L14.333 45.2091L12.6164 46.9332L10.7856 46.7534C10.7544 46.7504 10.7242 46.7623 10.7023 46.7851L10.0614 47.4288C10.0199 47.4674 10.0168 47.5328 10.0552 47.5753C10.0648 47.5858 10.0764 47.594 10.0891 47.5995L11.6824 48.3278C11.6876 48.5895 11.7891 48.8494 11.9876 49.0489C12.1865 49.2482 12.4453 49.3504 12.7057 49.3556L13.4326 50.9536C13.4561 51.0059 13.5171 51.029 13.5687 51.0059C13.5799 51.0007 13.5904 50.994 13.599 50.9854L14.2399 50.3376C14.2625 50.3159 14.2738 50.2855 14.2716 50.2542L14.0922 48.4194L15.8104 46.6937L17.9913 51.6283L19.0267 50.344L18.3504 44.1431L20.0358 42.4503L22.8731 43.2948V44.0446C22.8731 44.2971 23.0771 44.5017 23.3283 44.5017H26.927L37.2772 47.5828H23.3283C23.0771 47.5828 22.8731 47.7876 22.8731 48.04V50.9508C22.8731 51.2034 23.0771 51.408 23.3283 51.408H50.1265L63.6138 55.4231C63.587 55.5303 63.571 55.642 63.571 55.7577V61.6697C63.571 62.427 64.1824 63.0411 64.9367 63.0411C65.6909 63.0411 66.3023 62.427 66.3023 61.6697V56.2233L80.3483 60.4048C80.695 60.5081 81.0535 60.5604 81.4128 60.5604C83.0577 60.5604 84.533 59.4537 85.0012 57.8692L88.164 47.1545V68.2014ZM91.2076 27.1925L82.383 57.0894C82.2562 57.5182 81.8574 57.8176 81.4131 57.8176C81.3164 57.8176 81.2194 57.8032 81.1248 57.7751L61.1353 51.8242L61.5983 50.2558C61.8124 49.5296 61.4002 48.7664 60.6769 48.5511C59.9543 48.3362 59.1939 48.7497 58.9795 49.4761L58.5165 51.0448L3.45618 34.6533C2.92109 34.4939 2.61451 33.9271 2.77338 33.3897L11.5982 3.4928C11.7248 3.064 12.1235 2.76434 12.5678 2.76434C12.6645 2.76434 12.7617 2.77874 12.8562 2.80686L67.9165 19.1986L67.3448 21.1353C67.1306 21.8617 67.5428 22.6249 68.2661 22.84C68.3956 22.8786 68.5263 22.8969 68.6549 22.8969C69.2439 22.8969 69.7876 22.5111 69.9636 21.915L70.5353 19.9783L90.5245 25.9291C90.784 26.0062 90.998 26.1803 91.1268 26.419C91.2558 26.6571 91.2845 26.9321 91.2076 27.1925Z" fill="#ECB84C"/>
<path fill-rule="evenodd" clip-rule="evenodd" d="M64.0231 37.2149C63.3021 36.9993 62.5401 37.4133 62.3257 38.1399L60.6528 43.808C60.4386 44.5342 60.851 45.2976 61.5741 45.5127C61.7034 45.5513 61.8343 45.5696 61.9629 45.5696C62.5519 45.5696 63.0956 45.1838 63.2716 44.5874L64.9447 38.9193C65.1586 38.1931 64.746 37.4299 64.0231 37.2149Z" fill="#ECB84C"/>
<path fill-rule="evenodd" clip-rule="evenodd" d="M67.3693 25.8784C66.648 25.6633 65.8862 26.077 65.6718 26.8037L63.9987 32.4718C63.7846 33.1979 64.197 33.9611 64.9201 34.1762C65.0493 34.2149 65.18 34.2331 65.3088 34.2331C65.8979 34.2331 66.4416 33.8473 66.6175 33.2512L68.2906 27.5831C68.5048 26.8569 68.0924 26.0937 67.3693 25.8784Z" fill="#ECB84C"/>
<path fill-rule="evenodd" clip-rule="evenodd" d="M13.3581 15.053L14.6796 16.2057C14.6104 16.4581 14.6343 16.736 14.7683 16.984C14.9024 17.232 15.1216 17.4041 15.3699 17.4832L15.6148 19.2224C15.6225 19.2793 15.6742 19.3193 15.7304 19.3115C15.7425 19.3097 15.7543 19.3063 15.7652 19.3006L16.563 18.8624C16.5907 18.848 16.6103 18.8222 16.6169 18.7913L16.9642 16.9808L19.1001 15.8171L19.7945 21.1705L21.1505 20.2345L22.2571 14.0962L24.6028 12.8178C25.1099 12.5417 25.2979 11.9045 25.0227 11.3952C24.7476 10.8859 24.113 10.6969 23.6059 10.9733L21.2602 12.2519L15.5324 9.83817L14.0122 10.4702L18.1034 13.9723L15.9698 15.1355L14.2653 14.4402C14.2362 14.4286 14.2039 14.4313 14.1766 14.4469L13.38 14.8807C13.3292 14.9061 13.3078 14.9678 13.3326 15.0194C13.3385 15.0325 13.3474 15.0439 13.3581 15.053Z" fill="#ECB84C"/>
<path fill-rule="evenodd" clip-rule="evenodd" d="M55.8231 42.0841L8.74226 28.0679C8.50214 27.9968 8.24791 28.1342 8.17644 28.3764L7.35252 31.1673C7.31815 31.2834 7.33135 31.4087 7.38893 31.5154C7.44652 31.6219 7.54393 31.7012 7.65978 31.7355L54.7408 45.7515C54.7831 45.7643 54.8268 45.7705 54.8701 45.7705C54.9452 45.7705 55.0198 45.7518 55.0872 45.7152C55.1933 45.6574 55.2723 45.5595 55.3066 45.4434L56.1303 42.6526C56.2016 42.41 56.0641 42.1559 55.8231 42.0841Z" fill="#ECB84C"/>
<path fill-rule="evenodd" clip-rule="evenodd" d="M57.7778 35.4624L10.6967 21.4462C10.5811 21.4119 10.4564 21.4249 10.3503 21.4828C10.2443 21.5406 10.1653 21.6384 10.1312 21.7545L9.30723 24.5458C9.23576 24.7879 9.37323 25.0423 9.61426 25.1138L56.6953 39.1296C56.7379 39.1424 56.7813 39.1486 56.8246 39.1486C56.8997 39.1486 56.9743 39.1298 57.0417 39.0933C57.1478 39.0354 57.2267 38.9376 57.2611 38.8215L58.0848 36.0306C58.1563 35.7886 58.0188 35.5342 57.7778 35.4624Z" fill="#ECB84C"/>
<path fill-rule="evenodd" clip-rule="evenodd" d="M59.7319 28.8407L26.0565 18.8155C25.8157 18.744 25.5621 18.8816 25.4906 19.1241L24.6667 21.915C24.6324 22.0311 24.6456 22.1563 24.7031 22.2629C24.7607 22.3694 24.8581 22.4487 24.974 22.483L58.6501 32.5083C58.6927 32.5211 58.7361 32.5273 58.7794 32.5273C58.8545 32.5273 58.9292 32.5086 58.9965 32.472C59.1026 32.4142 59.1816 32.3161 59.2159 32.2L60.0392 29.4089C60.1104 29.1669 59.9729 28.9127 59.7319 28.8407Z" fill="#ECB84C"/>
<path fill-rule="evenodd" clip-rule="evenodd" d="M60.7335 25.9054C60.9297 25.9054 61.1111 25.7767 61.1696 25.5781L61.9937 22.7872C62.0281 22.6709 62.0151 22.5456 61.9576 22.4391C61.9 22.3326 61.8026 22.2533 61.6869 22.2188L28.0108 12.1936C27.7702 12.1221 27.5167 12.2599 27.445 12.5022L26.6211 15.293C26.5867 15.4092 26.5999 15.5344 26.6575 15.6409C26.7151 15.7474 26.8125 15.8268 26.9281 15.861L60.604 25.8862C60.6472 25.8994 60.6907 25.9054 60.7335 25.9054Z" fill="#ECB84C"/>
<path fill-rule="evenodd" clip-rule="evenodd" d="M58.4531 61.3957H9.3473C9.09579 61.3957 8.89209 61.6005 8.89209 61.8528V64.7637C8.89209 65.0162 9.09579 65.2208 9.3473 65.2208H58.4531C58.7044 65.2208 58.9083 65.0162 58.9083 64.7637V61.8528C58.9083 61.6002 58.7044 61.3957 58.4531 61.3957Z" fill="#ECB84C"/>
<path fill-rule="evenodd" clip-rule="evenodd" d="M58.4531 54.4892L9.3473 54.4889C9.22667 54.4889 9.11082 54.5372 9.02547 54.6229C8.94011 54.7086 8.89209 54.8249 8.89209 54.9461V57.8572C8.89209 58.1095 9.09579 58.3143 9.3473 58.3143H58.4531C58.7044 58.3143 58.9083 58.1095 58.9083 57.8572V54.9463C58.9083 54.694 58.7044 54.4892 58.4531 54.4892Z" fill="#ECB04C"/>
</symbol><symbol id="icon-contact" viewBox="0 0 17 16">
<path fill-rule="evenodd" clip-rule="evenodd" d="M17 7.44828C17 11.5553 13.1869 14.8966 8.5 14.8966C7.29215 14.8966 6.12595 14.6786 5.03115 14.2486C3.10278 15.3321 0.437466 15.7057 0.322716 15.7214C0.309399 15.7233 0.296366 15.7241 0.283333 15.7241C0.177082 15.7241 0.0779171 15.6659 0.0297508 15.5713C-0.0246487 15.4651 -0.00311661 15.3368 0.0830173 15.2532C0.734684 14.6188 1.18348 13.2803 1.35093 11.477C0.466366 10.2745 0 8.88386 0 7.44828C0 3.34124 3.8131 0 8.5 0C13.1869 0 17 3.34124 17 7.44828ZM5.66663 7.44817C5.66663 6.83962 5.15833 6.34473 4.53329 6.34473C3.90826 6.34473 3.39996 6.83962 3.39996 7.44817C3.39996 8.05673 3.90826 8.55162 4.53329 8.55162C5.15833 8.55162 5.66663 8.05673 5.66663 7.44817ZM9.6333 7.44817C9.6333 6.83962 9.125 6.34473 8.49997 6.34473C7.87493 6.34473 7.36663 6.83962 7.36663 7.44817C7.36663 8.05673 7.87493 8.55162 8.49997 8.55162C9.125 8.55162 9.6333 8.05673 9.6333 7.44817ZM13.6 7.44817C13.6 6.83962 13.0917 6.34473 12.4666 6.34473C11.8416 6.34473 11.3333 6.83962 11.3333 7.44817C11.3333 8.05673 11.8416 8.55162 12.4666 8.55162C13.0917 8.55162 13.6 8.05673 13.6 7.44817Z" fill="#D3D3D3"/>
</symbol><symbol id="icon-fb" viewBox="0 0 16 16">
<path fill-rule="evenodd" clip-rule="evenodd" d="M8 0C3.58882 0 0 3.58882 0 8C0 12.4109 3.58882 16 8 16C12.4109 16 16 12.4109 16 8C16 3.58882 12.4115 0 8 0ZM9.98947 8.28167H8.68793C8.68793 10.3611 8.68793 12.9207 8.68793 12.9207H6.75931C6.75931 12.9207 6.75931 10.3859 6.75931 8.28167H5.84253V6.6421H6.75931V5.5816C6.75931 4.82207 7.12022 3.63525 8.70566 3.63525L10.1348 3.64073V5.23229C10.1348 5.23229 9.26636 5.23229 9.0975 5.23229C8.92865 5.23229 8.68858 5.31672 8.68858 5.67892V6.64242H10.158L9.98947 8.28167Z" fill="#D3D3D3"/>
</symbol><symbol id="icon-insta" viewBox="0 0 16 16">
<path fill-rule="evenodd" clip-rule="evenodd" d="M7.94401 9.5348C8.82049 9.5348 9.53505 8.82152 9.53505 7.9444C9.53505 7.59816 9.42177 7.27848 9.23425 7.01736C8.94529 6.61672 8.47553 6.354 7.94497 6.354C7.41409 6.354 6.94465 6.6164 6.65505 7.01704C6.46689 7.27816 6.35457 7.59784 6.35425 7.94408C6.35329 8.8212 7.06721 9.5348 7.94401 9.5348Z" fill="#D3D3D3"/>
<path fill-rule="evenodd" clip-rule="evenodd" d="M11.417 5.99881V4.66569V4.46729L11.2176 4.46793L9.88513 4.47209L9.89025 6.00393L11.417 5.99881Z" fill="#D3D3D3"/>
<path fill-rule="evenodd" clip-rule="evenodd" d="M7.94432 0C3.56384 0 0 3.56384 0 7.94432C0 12.3245 3.56384 15.8886 7.94432 15.8886C12.3245 15.8886 15.8886 12.3245 15.8886 7.94432C15.8886 3.56384 12.3251 0 7.94432 0ZM12.4624 7.01723V10.7164C12.4624 11.68 11.6791 12.463 10.7162 12.463H5.17251C4.20931 12.463 3.42627 11.68 3.42627 10.7164V7.01723V5.17275C3.42627 4.20955 4.20931 3.42651 5.17251 3.42651H10.7159C11.6791 3.42651 12.4624 4.20955 12.4624 5.17275V7.01723Z" fill="#D3D3D3"/>
<path fill-rule="evenodd" clip-rule="evenodd" d="M10.4157 7.94437C10.4157 9.30661 9.30723 10.4157 7.94435 10.4157C6.58147 10.4157 5.47331 9.30661 5.47331 7.94437C5.47331 7.61669 5.53859 7.30341 5.65507 7.01733H4.30627V10.7165C4.30627 11.1946 4.69443 11.5818 5.17219 11.5818H10.7156C11.1927 11.5818 11.5815 11.1946 11.5815 10.7165V7.01733H10.232C10.3495 7.30341 10.4157 7.61669 10.4157 7.94437Z" fill="#D3D3D3"/>
</symbol><symbol id="icon-logo" viewBox="0 0 149 27">
<path d="M12.784 6.892V26H6.97V6.892H0.17V1.928H19.584V6.892H12.784ZM30.34 15.596C30.34 14.712 30.0566 13.9527 29.49 13.318C28.946 12.6833 28.1186 12.366 27.008 12.366C26.464 12.366 25.9653 12.4567 25.512 12.638C25.0586 12.7967 24.662 13.0233 24.322 13.318C23.982 13.6127 23.71 13.964 23.506 14.372C23.302 14.7573 23.1886 15.1653 23.166 15.596H30.34ZM35.474 17.738C35.474 17.9647 35.474 18.1913 35.474 18.418C35.474 18.6447 35.4626 18.86 35.44 19.064H23.166C23.2113 19.54 23.3473 19.9707 23.574 20.356C23.8233 20.7413 24.1293 21.0813 24.492 21.376C24.8773 21.648 25.2966 21.8633 25.75 22.022C26.226 22.1807 26.7133 22.26 27.212 22.26C28.096 22.26 28.844 22.1013 29.456 21.784C30.068 21.444 30.5666 21.0133 30.952 20.492L34.828 22.94C34.0346 24.096 32.9806 24.9913 31.666 25.626C30.374 26.238 28.8666 26.544 27.144 26.544C25.8746 26.544 24.6733 26.3513 23.54 25.966C22.4066 25.558 21.4093 24.98 20.548 24.232C19.7093 23.4613 19.0406 22.5207 18.542 21.41C18.066 20.2993 17.828 19.03 17.828 17.602C17.828 16.2193 18.066 14.9727 18.542 13.862C19.018 12.7287 19.664 11.7767 20.48 11.006C21.296 10.2127 22.2593 9.60067 23.37 9.17C24.4806 8.73933 25.682 8.524 26.974 8.524C28.2206 8.524 29.3653 8.73933 30.408 9.17C31.4506 9.578 32.346 10.1787 33.094 10.972C33.842 11.7653 34.42 12.7287 34.828 13.862C35.2586 14.9953 35.474 16.2873 35.474 17.738ZM48.8939 14.066C48.4405 13.6353 47.9079 13.2727 47.2959 12.978C46.6839 12.6833 46.0379 12.536 45.3579 12.536C44.8365 12.536 44.3492 12.638 43.8959 12.842C43.4652 13.046 43.2499 13.3973 43.2499 13.896C43.2499 14.372 43.4879 14.712 43.9639 14.916C44.4625 15.12 45.2559 15.3467 46.3439 15.596C46.9785 15.732 47.6132 15.9247 48.2479 16.174C48.9052 16.4233 49.4945 16.752 50.0159 17.16C50.5372 17.568 50.9565 18.0667 51.2739 18.656C51.5912 19.2453 51.7499 19.948 51.7499 20.764C51.7499 21.8293 51.5345 22.736 51.1039 23.484C50.6732 24.2093 50.1065 24.7987 49.4039 25.252C48.7239 25.7053 47.9532 26.034 47.0919 26.238C46.2305 26.442 45.3692 26.544 44.5079 26.544C43.1252 26.544 41.7652 26.3287 40.4279 25.898C39.1132 25.4447 38.0139 24.7873 37.1299 23.926L40.2579 20.628C40.7565 21.172 41.3685 21.6253 42.0939 21.988C42.8192 22.3507 43.5899 22.532 44.4059 22.532C44.8592 22.532 45.3012 22.43 45.7319 22.226C46.1852 21.9993 46.4119 21.614 46.4119 21.07C46.4119 20.5487 46.1399 20.1633 45.5959 19.914C45.0519 19.6647 44.2019 19.404 43.0459 19.132C42.4565 18.996 41.8672 18.8147 41.2779 18.588C40.6885 18.3613 40.1559 18.0553 39.6799 17.67C39.2265 17.2847 38.8525 16.8087 38.5579 16.242C38.2632 15.6753 38.1159 14.9953 38.1159 14.202C38.1159 13.182 38.3312 12.3207 38.7619 11.618C39.1925 10.8927 39.7479 10.3033 40.4279 9.85C41.1079 9.39667 41.8559 9.068 42.6719 8.864C43.5105 8.63733 44.3379 8.524 45.1539 8.524C46.4232 8.524 47.6585 8.728 48.8599 9.136C50.0839 9.52133 51.1152 10.1107 51.9539 10.904L48.8939 14.066ZM61.021 13.25V19.71C61.021 20.5033 61.1683 21.104 61.463 21.512C61.7803 21.8973 62.3356 22.09 63.129 22.09C63.401 22.09 63.6843 22.0673 63.979 22.022C64.2963 21.9767 64.557 21.9087 64.761 21.818L64.829 25.898C64.4436 26.034 63.9563 26.1473 63.367 26.238C62.7776 26.3513 62.1883 26.408 61.599 26.408C60.4656 26.408 59.5136 26.272 58.743 26C57.9723 25.7053 57.349 25.2973 56.873 24.776C56.4196 24.232 56.091 23.5973 55.887 22.872C55.683 22.124 55.581 21.2967 55.581 20.39V13.25H52.861V9.068H55.547V4.614H61.021V9.068H64.999V13.25H61.021ZM74.7254 21.104H74.7934L80.4374 1.928H84.1434L89.7534 21.104H89.8214L95.1254 1.928H98.6954L91.6234 26H88.1214L82.2734 6.654H82.2054L76.3574 26H72.8554L65.7834 1.928H69.4214L74.7254 21.104ZM116.89 17.908C116.89 19.1547 116.664 20.2993 116.21 21.342C115.78 22.3847 115.168 23.2913 114.374 24.062C113.604 24.81 112.686 25.3993 111.62 25.83C110.555 26.238 109.41 26.442 108.186 26.442C106.962 26.442 105.818 26.238 104.752 25.83C103.687 25.3993 102.769 24.81 101.998 24.062C101.228 23.2913 100.616 22.3847 100.162 21.342C99.7317 20.2993 99.5164 19.1547 99.5164 17.908C99.5164 16.6613 99.7317 15.528 100.162 14.508C100.616 13.4653 101.228 12.57 101.998 11.822C102.769 11.074 103.687 10.496 104.752 10.088C105.818 9.65733 106.962 9.442 108.186 9.442C109.41 9.442 110.555 9.65733 111.62 10.088C112.686 10.496 113.604 11.074 114.374 11.822C115.168 12.57 115.78 13.4653 116.21 14.508C116.664 15.528 116.89 16.6613 116.89 17.908ZM113.558 17.908C113.558 17.1373 113.434 16.4007 113.184 15.698C112.958 14.9953 112.618 14.3833 112.164 13.862C111.711 13.318 111.144 12.8873 110.464 12.57C109.807 12.2527 109.048 12.094 108.186 12.094C107.325 12.094 106.554 12.2527 105.874 12.57C105.217 12.8873 104.662 13.318 104.208 13.862C103.755 14.3833 103.404 14.9953 103.154 15.698C102.928 16.4007 102.814 17.1373 102.814 17.908C102.814 18.6787 102.928 19.4153 103.154 20.118C103.404 20.8207 103.755 21.444 104.208 21.988C104.662 22.532 105.217 22.9627 105.874 23.28C106.554 23.5973 107.325 23.756 108.186 23.756C109.048 23.756 109.807 23.5973 110.464 23.28C111.144 22.9627 111.711 22.532 112.164 21.988C112.618 21.444 112.958 20.8207 113.184 20.118C113.434 19.4153 113.558 18.6787 113.558 17.908ZM121.322 13.352C121.322 12.9213 121.311 12.366 121.288 11.686C121.266 11.006 121.232 10.4053 121.186 9.884H124.212C124.258 10.292 124.292 10.768 124.314 11.312C124.337 11.8333 124.348 12.264 124.348 12.604H124.45C124.904 11.652 125.561 10.8927 126.422 10.326C127.306 9.73667 128.292 9.442 129.38 9.442C129.879 9.442 130.298 9.48733 130.638 9.578L130.502 12.536C130.049 12.4227 129.562 12.366 129.04 12.366C128.27 12.366 127.601 12.5133 127.034 12.808C126.468 13.08 125.992 13.454 125.606 13.93C125.244 14.406 124.972 14.9613 124.79 15.596C124.609 16.208 124.518 16.854 124.518 17.534V26H121.322V13.352ZM136.905 16.888H137.007L143.773 9.884H148.057L140.509 17.194L148.703 26H144.283L137.007 17.636H136.905V26H133.709V0.295999H136.905V16.888Z" fill="#37C491"/>
</symbol><symbol id="icon-operators" viewBox="0 0 80 76">
<path fill-rule="evenodd" clip-rule="evenodd" d="M74.4828 0.0376892H68.9656H66.0691H57.9311H55.1725H46.8966H44.138H35.862H33.1034H24.8275H22.0689H13.7931H11.0345H5.37937C2.34484 0.0376892 0 2.38446 0 5.42149V16.603C0 18.5357 0.827656 20.4682 2.20688 21.7107C2.80594 22.1904 3.45734 22.5917 4.13797 22.8924V30.4075V74.5818C4.13797 75.4101 4.68969 75.9623 5.51734 75.9623H12.4139H31.7242H74.4828C75.3105 75.9623 75.8622 75.4101 75.8622 74.5818V30.4078V30.4077V22.896C78.2812 21.7327 80 19.1595 80 16.327V5.42149C80 2.38446 77.6552 0.0376892 74.4828 0.0376892ZM57.9312 2.79874H66.0691V16.6032C66.0691 16.8805 66.0912 17.1574 66.1293 17.4326C65.7622 19.3599 64.1288 20.7446 62.0691 20.7446C59.7243 20.7446 57.9312 18.95 57.9312 16.6032V2.79874ZM46.8965 2.79874H55.1724V16.6032C55.1724 18.95 53.3793 20.7446 51.0345 20.7446C48.6896 20.7446 46.8965 18.95 46.8965 16.6032V2.79874ZM35.8621 2.79874H44.138V16.6032C44.138 18.95 42.3449 20.7446 40 20.7446C37.6552 20.7446 35.8621 18.95 35.8621 16.6032V2.79874ZM24.8276 2.79874H33.1036V16.6032C33.1036 18.95 31.3104 20.7446 28.9656 20.7446C26.6208 20.7446 24.8276 18.95 24.8276 16.6032V2.79874ZM13.7932 2.79874H22.0691V16.6032C22.0691 18.95 20.276 20.7446 17.9312 20.7446C15.5863 20.7446 13.7932 18.95 13.7932 16.6032V16.327V2.79874ZM2.75854 16.6031V5.42152C2.75854 3.90308 3.86198 2.79874 5.37917 2.79874H11.0343V16.327C11.0343 18.3916 9.58808 20.2145 7.70964 20.6692C7.50526 20.7074 7.29495 20.7315 7.07948 20.7401C6.03698 20.7033 4.90823 20.411 4.13776 19.6401C3.31026 18.9498 2.75854 17.7074 2.75854 16.6031ZM7.58617 23.5053C8.13211 23.4397 8.6607 23.3045 9.16383 23.1098C10.4588 22.6521 11.5971 21.8236 12.3968 20.7657C13.6449 22.4387 15.6426 23.5053 17.931 23.5053C20.2093 23.5053 22.199 22.4478 23.4482 20.7874C24.6974 22.4478 26.6871 23.5053 28.9654 23.5053C31.2437 23.5053 33.2334 22.4478 34.4826 20.7874C35.7318 22.4478 37.7215 23.5053 39.9998 23.5053C42.278 23.5053 44.2677 22.4478 45.517 20.7874C46.7662 22.4478 48.7559 23.5053 51.0341 23.5053C53.3124 23.5053 55.3021 22.4478 56.5513 20.7874C57.8005 22.4478 59.7902 23.5053 62.0685 23.5053C64.3402 23.5053 66.3248 22.4538 67.5746 20.8016C67.831 21.1324 68.1115 21.4389 68.4132 21.7107C68.6341 21.8877 68.863 22.0527 69.097 22.2072C70.0731 22.9002 71.2396 23.3548 72.4727 23.4721C72.4829 23.4732 72.493 23.474 72.5032 23.4749C72.5876 23.4826 72.6718 23.4899 72.7568 23.4945C72.8721 23.501 72.9874 23.5053 73.1027 23.5053V29.027H6.89648V23.5053C7.17227 23.5053 7.31023 23.5053 7.58617 23.5053ZM13.7932 73.2013V37.3097H30.3449V56.6359H27.5863C26.7587 56.6359 26.207 57.1881 26.207 58.0164C26.207 58.8448 26.7587 59.3969 27.5863 59.3969H30.3449V73.2014H13.7932V73.2013ZM73.1034 73.2013H33.1034V35.9294C33.1034 35.101 32.5516 34.5489 31.724 34.5489H12.4137C11.586 34.5489 11.0343 35.101 11.0343 35.9294V73.2014H6.89648V31.788H73.1034V73.2013ZM77.2415 16.327C77.2415 18.3667 75.991 19.9885 74.3054 20.5596C74.2267 20.5668 74.1479 20.5802 74.069 20.6065C73.8659 20.7082 73.5882 20.7347 73.3457 20.7418C72.287 20.7141 71.13 20.4257 70.3449 19.6401C69.5173 18.9498 68.9656 17.7074 68.9656 16.6031V2.79874H74.6207C76.1379 2.79874 77.2414 4.04116 77.2414 5.42152V16.327H77.2415Z" fill="#ECB84C"/>
<path fill-rule="evenodd" clip-rule="evenodd" d="M38.6207 67.6796H45.5173H62.069H68.9656C69.7932 67.6796 70.345 67.1274 70.345 66.2991V35.9294C70.345 35.1011 69.7932 34.5489 68.9656 34.5489H60.6896H46.8965H38.6206C37.7929 34.5489 37.2412 35.1011 37.2412 35.9294V66.2992C37.2415 67.1274 37.7932 67.6796 38.6207 67.6796ZM57.9311 60.7773C58.7588 60.7773 59.3105 60.2252 59.3105 59.3968C59.3105 58.5685 58.7588 58.0163 57.9311 58.0163H49.6552C48.8275 58.0163 48.2758 58.5685 48.2758 59.3968C48.2758 60.2252 48.8275 60.7773 49.6552 60.7773H52.4138V64.9187H46.8575C46.5855 60.0025 44.8704 55.8972 42.3447 53.8751C45.5993 51.1391 47.9925 44.959 48.2514 37.3098H59.3333C59.5786 44.959 61.8566 51.1391 65.2413 53.8751C62.7158 55.8972 61.0005 60.0025 60.7285 64.9187H55.1722V60.7773H57.9311ZM67.5865 64.9187H63.4485C63.8622 60.2251 65.6554 56.774 67.5865 55.6697V64.9187ZM67.5863 37.3098V52.0805C64.8277 50.5621 62.3449 45.0402 62.0691 37.3098H67.5863ZM40 37.3098H45.5172C45.2413 45.0403 42.6206 50.5621 40 52.0805V37.3098ZM40 55.6697C42.0689 56.774 43.862 60.2251 44.138 64.9187H40V55.6697Z" fill="#ECB84C"/>
<path fill-rule="evenodd" clip-rule="evenodd" d="M27.5862 49.7337V41.451C27.5862 40.6226 27.0345 40.0705 26.2068 40.0705H17.9309C17.1032 40.0705 16.5515 40.6226 16.5515 41.451V49.7337C16.5515 50.5621 17.1032 51.1142 17.9309 51.1142H26.2068C27.0345 51.1142 27.5862 50.5621 27.5862 49.7337ZM24.8275 48.3534H19.3103V42.8316H24.8275V48.3534Z" fill="#ECB84C"/>
</symbol><symbol id="icon-reviews" viewBox="0 0 94 80">
<path fill-rule="evenodd" clip-rule="evenodd" d="M86.7623 26.3904C82.2392 21.8755 75.9118 18.6604 68.9457 17.3369C68.1051 17.1778 67.2944 17.7334 67.1355 18.5791C66.9767 19.4248 67.5295 20.24 68.3705 20.3998C81.6361 22.9199 90.901 32.1928 90.901 42.9498C90.901 51.8092 84.6305 59.7718 74.5367 63.7303C74.0215 63.9325 73.6523 64.3954 73.5682 64.9452C72.9559 68.9452 73.7918 73.0161 75.8343 76.4073C71.3744 75.2091 67.7619 71.7666 66.3569 67.1019C66.1445 66.3967 65.4681 65.9362 64.7399 66.0012C63.6455 66.0968 62.5425 66.1454 61.4614 66.1454C51.822 66.1454 42.7738 62.4052 37.2576 56.14C36.6905 55.4957 35.7112 55.4358 35.0704 56.0064C34.4297 56.577 34.3702 57.562 34.9375 58.2063C41.0329 65.1291 50.9485 69.2623 61.4614 69.2623C62.2337 69.2623 63.0158 69.2395 63.7986 69.1942C64.9219 72.108 66.8541 74.7023 69.3295 76.5924C72.2373 78.8127 75.7032 79.9861 79.3518 79.9861C79.9772 79.9861 80.5412 79.6079 80.7818 79.0273C81.0225 78.4467 80.8926 77.7776 80.4525 77.3307C77.5953 74.4297 76.1606 70.3541 76.5262 66.2826C81.5299 64.1698 85.7725 61.0394 88.838 57.1896C92.2149 52.9488 93.9999 48.0249 93.9999 42.9498C93.9999 36.9303 91.4297 31.0493 86.7623 26.3904Z" fill="#ECB84C"/>
<path fill-rule="evenodd" clip-rule="evenodd" d="M65.0769 26.3264C65.0769 19.2293 61.6454 12.5797 55.4143 7.60249C49.2882 2.70899 41.1639 0.0141296 32.5385 0.0141296C23.9124 0.0141296 15.7879 2.70899 9.66217 7.60249C3.43131 12.5797 0 19.2293 0 26.3264C0 31.4016 1.78497 36.3256 5.16174 40.5662C8.22717 44.4158 12.47 47.5464 17.4735 49.6592C17.8391 53.7307 16.4043 57.8063 13.5472 60.7073C13.1071 61.1541 12.9772 61.8234 13.2178 62.4039C13.4585 62.9845 14.0227 63.3627 14.6479 63.3627C18.2967 63.3627 21.7623 62.1893 24.6701 59.969C27.1455 58.0792 29.0778 55.4847 30.2011 52.5708C30.9838 52.6161 31.766 52.639 32.5383 52.639C41.1639 52.639 49.2882 49.9441 55.4141 45.0506C61.6454 40.0731 65.0769 33.4236 65.0769 26.3264ZM29.26 49.3777C28.5295 49.3135 27.8554 49.7729 27.643 50.4783C26.238 55.1429 22.6257 58.5853 18.1655 59.7835C20.2081 56.3925 21.044 52.3215 20.4317 48.3215C20.3476 47.7716 19.9784 47.3087 19.4631 47.1065C9.3694 43.1485 3.09888 35.1859 3.09888 26.3264C3.09888 13.5364 16.3054 3.13101 32.5384 3.13101C48.7715 3.13101 61.978 13.5364 61.978 26.3264C61.978 39.1165 48.7715 49.5219 32.5384 49.5219C31.4573 49.5219 30.3543 49.4735 29.26 49.3777Z" fill="#ECB84C"/>
</symbol><symbol id="icon-route" viewBox="0 0 79 80">
<path fill-rule="evenodd" clip-rule="evenodd" d="M27.352 38.636C24.324 35.216 20.2867 33.3333 15.9813 33.3333C11.676 33.3333 7.63867 35.216 4.612 38.636C-1.53733 45.584 -1.53733 56.8867 4.612 63.8347L15.9813 76.6787L27.3507 63.8347C33.5013 56.8867 33.5013 45.584 27.352 38.636ZM25.3546 62.0667L15.9826 72.6547L6.60931 62.0667C1.32131 56.0947 1.32131 46.376 6.60931 40.404C9.12264 37.564 12.452 36 15.9813 36C19.5106 36 22.8413 37.564 25.3533 40.404C30.6413 46.376 30.6413 56.0933 25.3546 62.0667Z" fill="#ECB84C"/>
<path fill-rule="evenodd" clip-rule="evenodd" d="M64.32 32.676L72.9387 22.9613C77.576 17.7347 77.576 9.23333 72.9387 4.00667C70.6454 1.42267 67.584 0 64.3187 0C61.0547 0 57.9934 1.42267 55.7 4.00667C51.0627 9.23333 51.0627 17.7347 55.7 22.9613L64.32 32.676ZM57.6948 5.77735C59.4748 3.77069 61.8268 2.66669 64.3188 2.66669C66.8122 2.66669 69.1642 3.77069 70.9442 5.77735C74.7148 10.0267 74.7148 16.9414 70.9442 21.1907L64.3202 28.6587L57.6948 21.1907C53.9242 16.9414 53.9242 10.0267 57.6948 5.77735Z" fill="#ECB84C"/>
<path fill-rule="evenodd" clip-rule="evenodd" d="M69.4627 72.6893C68.744 72.528 68.0307 72.9787 67.8694 73.6973C67.716 74.3773 67.4187 75.0027 66.9854 75.5533C66.5307 76.132 66.6294 76.9707 67.2094 77.4253C67.4547 77.6173 67.744 77.7107 68.032 77.7107C68.428 77.7107 68.8187 77.536 69.0814 77.2013C69.7534 76.348 70.2334 75.34 70.4707 74.284C70.632 73.564 70.1814 72.8507 69.4627 72.6893Z" fill="#ECB84C"/>
<path fill-rule="evenodd" clip-rule="evenodd" d="M41.9841 41.3333C41.4067 41.332 40.8454 41.2293 40.3147 41.0267C39.6321 40.7667 38.8574 41.1093 38.5934 41.7973C38.3321 42.4853 38.6774 43.256 39.3641 43.5187C40.1987 43.836 41.0774 43.9987 41.9814 44H42.4574C43.1947 44 43.7907 43.404 43.7907 42.6667C43.7907 41.9293 43.1947 41.3333 42.4574 41.3333H41.9841Z" fill="#ECB84C"/>
<path fill-rule="evenodd" clip-rule="evenodd" d="M38.8186 32.9013C39.06 32.9013 39.3026 32.836 39.5226 32.7C40.1133 32.332 40.7666 32.1067 41.4613 32.0293C42.1933 31.948 42.7213 31.2893 42.6413 30.5573C42.5613 29.8253 41.9066 29.3027 41.1693 29.3773C40.0733 29.4987 39.044 29.8533 38.1106 30.436C37.4853 30.8253 37.296 31.648 37.6853 32.2733C37.9386 32.6787 38.3733 32.9013 38.8186 32.9013Z" fill="#ECB84C"/>
<path fill-rule="evenodd" clip-rule="evenodd" d="M23.4093 77.3333H20.7426C20.0053 77.3333 19.4093 77.9293 19.4093 78.6667C19.4093 79.404 20.0053 80 20.7426 80H23.4093C24.1466 80 24.7426 79.404 24.7426 78.6667C24.7426 77.9293 24.1453 77.3333 23.4093 77.3333Z" fill="#ECB84C"/>
<path fill-rule="evenodd" clip-rule="evenodd" d="M47.3147 53.3333C47.2 53.3333 47.0867 53.336 46.9734 53.3413C46.2374 53.3707 45.6667 53.992 45.696 54.728C45.724 55.4453 46.316 56.0067 47.0267 56.0067C47.0454 56.0067 47.064 56.0067 47.0827 56.0053L49.6947 56C50.432 56 51.028 55.404 51.028 54.6667C51.028 53.9293 50.432 53.3333 49.6947 53.3333H47.3147Z" fill="#ECB84C"/>
<path fill-rule="evenodd" clip-rule="evenodd" d="M46.648 32H49.3147C50.052 32 50.648 31.404 50.648 30.6667C50.648 29.9293 50.052 29.3333 49.3147 29.3333H46.648C45.9107 29.3333 45.3147 29.9293 45.3147 30.6667C45.3147 31.404 45.9107 32 46.648 32Z" fill="#ECB84C"/>
<path fill-rule="evenodd" clip-rule="evenodd" d="M63.028 53.3333C62.2907 53.3333 61.6947 53.9293 61.6947 54.6667C61.6947 55.404 62.2907 56 63.028 56H65.6947C66.432 56 67.028 55.404 67.028 54.6667C67.028 53.9293 66.432 53.3333 65.6947 53.3333H63.028Z" fill="#ECB84C"/>
<path fill-rule="evenodd" clip-rule="evenodd" d="M67.792 42.6667C67.792 41.9293 67.196 41.3333 66.4586 41.3333H63.792C63.0546 41.3333 62.4586 41.9293 62.4586 42.6667C62.4586 43.404 63.0546 44 63.792 44H66.4586C67.1946 44 67.792 43.404 67.792 42.6667Z" fill="#ECB84C"/>
<path fill-rule="evenodd" clip-rule="evenodd" d="M55.028 56H57.6947C58.432 56 59.028 55.404 59.028 54.6667C59.028 53.9293 58.432 53.3333 57.6947 53.3333H55.028C54.2907 53.3333 53.6947 53.9293 53.6947 54.6667C53.6947 55.404 54.292 56 55.028 56Z" fill="#ECB84C"/>
<path fill-rule="evenodd" clip-rule="evenodd" d="M57.3147 32C58.052 32 58.648 31.404 58.648 30.6667C58.648 29.9293 58.052 29.3333 57.3147 29.3333H54.648C53.9107 29.3333 53.3147 29.9293 53.3147 30.6667C53.3147 31.404 53.9107 32 54.648 32H57.3147Z" fill="#ECB84C"/>
<path fill-rule="evenodd" clip-rule="evenodd" d="M47.792 41.3333C47.0546 41.3333 46.4586 41.9293 46.4586 42.6667C46.4586 43.404 47.0546 44 47.792 44H50.4586C51.196 44 51.792 43.404 51.792 42.6667C51.792 41.9293 51.196 41.3333 50.4586 41.3333H47.792Z" fill="#ECB84C"/>
<path fill-rule="evenodd" clip-rule="evenodd" d="M59.792 42.6667C59.792 41.9293 59.196 41.3333 58.4586 41.3333H55.792C55.0546 41.3333 54.4586 41.9293 54.4586 42.6667C54.4586 43.404 55.0546 44 55.792 44H58.4586C59.1946 44 59.792 43.404 59.792 42.6667Z" fill="#ECB84C"/>
<path fill-rule="evenodd" clip-rule="evenodd" d="M78.5586 47.5093C78.4413 46.7813 77.7546 46.284 77.0306 46.404C76.3026 46.52 75.808 47.2053 75.9253 47.932C75.9626 48.1693 75.984 48.4107 75.9813 48.668C75.9813 49.116 75.9173 49.5587 75.792 49.9853C75.5853 50.692 75.9893 51.4333 76.6973 51.64C76.8226 51.676 76.948 51.6933 77.072 51.6933C77.6493 51.6933 78.1813 51.3173 78.352 50.7347C78.548 50.064 78.648 49.3693 78.648 48.6773C78.6506 48.2933 78.6213 47.9 78.5586 47.5093Z" fill="#ECB84C"/>
<path fill-rule="evenodd" clip-rule="evenodd" d="M55.4093 77.3333H52.7426C52.0053 77.3333 51.4093 77.9293 51.4093 78.6667C51.4093 79.404 52.0053 80 52.7426 80H55.4093C56.1466 80 56.7426 79.404 56.7426 78.6667C56.7426 77.9293 56.1453 77.3333 55.4093 77.3333Z" fill="#ECB84C"/>
<path fill-rule="evenodd" clip-rule="evenodd" d="M47.4093 77.3333H44.7426C44.0053 77.3333 43.4093 77.9293 43.4093 78.6667C43.4093 79.404 44.0053 80 44.7426 80H47.4093C48.1466 80 48.7426 79.404 48.7426 78.6667C48.7426 77.9293 48.1453 77.3333 47.4093 77.3333Z" fill="#ECB84C"/>
<path fill-rule="evenodd" clip-rule="evenodd" d="M62.0774 66.6667C62.0774 65.9293 61.4814 65.3333 60.744 65.3333H58.0774C57.34 65.3333 56.744 65.9293 56.744 66.6667C56.744 67.404 57.34 68 58.0774 68H60.744C61.48 68 62.0774 67.404 62.0774 66.6667Z" fill="#ECB84C"/>
<path fill-rule="evenodd" clip-rule="evenodd" d="M54.0774 66.6667C54.0774 65.9293 53.4814 65.3333 52.744 65.3333H50.0774C49.34 65.3333 48.744 65.9293 48.744 66.6667C48.744 67.404 49.34 68 50.0774 68H52.744C53.48 68 54.0774 67.404 54.0774 66.6667Z" fill="#ECB84C"/>
<path fill-rule="evenodd" clip-rule="evenodd" d="M63.3146 77.3333H60.7413C60.004 77.3333 59.408 77.9293 59.408 78.6667C59.408 79.404 60.004 80 60.7413 80L63.3693 79.9987L63.408 78.6653V79.9987C64.1453 79.9987 64.6946 79.4027 64.6946 78.6653C64.6946 77.9293 64.052 77.3333 63.3146 77.3333Z" fill="#ECB84C"/>
<path fill-rule="evenodd" clip-rule="evenodd" d="M68.032 70.292C68.32 70.292 68.612 70.1987 68.8547 70.0067C69.4347 69.5507 69.5334 68.712 69.0787 68.1347C68.408 67.2827 67.5427 66.5787 66.5734 66.0973C65.9107 65.768 65.1134 66.0387 64.7854 66.6973C64.4574 67.3573 64.7267 68.1573 65.3854 68.4853C66.0027 68.7907 66.5547 69.24 66.9814 69.784C67.2454 70.1173 67.636 70.292 68.032 70.292Z" fill="#ECB84C"/>
<path fill-rule="evenodd" clip-rule="evenodd" d="M73.1174 52.972C72.5454 53.212 71.94 53.3333 71.3147 53.3333H71.028C70.2907 53.3333 69.6947 53.9293 69.6947 54.6667C69.6947 55.404 70.2907 56 71.028 56H71.3147C72.296 56 73.2494 55.808 74.148 55.4307C74.828 55.1453 75.1467 54.364 74.8614 53.6853C74.5774 53.0067 73.7907 52.6867 73.1174 52.972Z" fill="#ECB84C"/>
<path fill-rule="evenodd" clip-rule="evenodd" d="M36.6959 39.8067C37.3946 39.576 37.7759 38.8227 37.5466 38.1227C37.3933 37.6547 37.3146 37.1653 37.3146 36.672C37.3159 36.4707 37.3279 36.2693 37.3519 36.0733C37.4439 35.3427 36.9266 34.6747 36.1959 34.584C35.4426 34.5 34.7973 35.012 34.7066 35.74C34.6693 36.0413 34.6493 36.348 34.6479 36.6653C34.6479 37.4493 34.7706 38.22 35.0119 38.956C35.1973 39.5173 35.7186 39.8733 36.2786 39.8733C36.4173 39.8733 36.5586 39.8533 36.6959 39.8067Z" fill="#ECB84C"/>
<path fill-rule="evenodd" clip-rule="evenodd" d="M31.4093 77.3333H28.7426C28.0053 77.3333 27.4093 77.9293 27.4093 78.6667C27.4093 79.404 28.0053 80 28.7426 80H31.4093C32.1466 80 32.7426 79.404 32.7426 78.6667C32.7426 77.9293 32.1453 77.3333 31.4093 77.3333Z" fill="#ECB84C"/>
<path fill-rule="evenodd" clip-rule="evenodd" d="M44.82 67.4587C45.3267 67.4587 45.8093 67.1693 46.0333 66.68C46.3387 66.0093 46.0453 65.2187 45.376 64.9133C44.7507 64.6267 44.184 64.196 43.7387 63.6653C43.264 63.1013 42.424 63.028 41.86 63.5027C41.296 63.976 41.2227 64.8173 41.6973 65.3813C42.396 66.212 43.284 66.8893 44.2667 67.3373C44.4467 67.4187 44.6347 67.4587 44.82 67.4587Z" fill="#ECB84C"/>
<path fill-rule="evenodd" clip-rule="evenodd" d="M74.9853 42.3173C74.0333 41.7653 72.9933 41.4413 71.8959 41.3547C71.1639 41.3013 70.5199 41.844 70.4626 42.58C70.4053 43.3147 70.9533 43.956 71.6879 44.0133C72.3839 44.068 73.0439 44.2733 73.6479 44.624C73.8586 44.7467 74.0893 44.804 74.3159 44.804C74.7759 44.804 75.2239 44.5653 75.4706 44.14C75.8399 43.504 75.6226 42.688 74.9853 42.3173Z" fill="#ECB84C"/>
<path fill-rule="evenodd" clip-rule="evenodd" d="M39.4093 77.3333H36.7426C36.0053 77.3333 35.4093 77.9293 35.4093 78.6667C35.4093 79.404 36.0053 80 36.7426 80H39.4093C40.1466 80 40.7426 79.404 40.7426 78.6667C40.7426 77.9293 40.1453 77.3333 39.4093 77.3333Z" fill="#ECB84C"/>
<path fill-rule="evenodd" clip-rule="evenodd" d="M42.7307 59.7853C42.8627 59.1 43.14 58.4667 43.556 57.9013C43.992 57.3093 43.8653 56.4747 43.272 56.0373C42.6787 55.6027 41.8453 55.728 41.408 56.3213C40.756 57.2093 40.3187 58.2053 40.1107 59.284C39.972 60.0067 40.4453 60.7053 41.1693 60.8453C41.2533 60.8613 41.3387 60.8693 41.4213 60.8693C42.048 60.8667 42.6067 60.4227 42.7307 59.7853Z" fill="#ECB84C"/>
<path fill-rule="evenodd" clip-rule="evenodd" d="M64.648 20C68.6907 20 71.9814 16.7093 71.9814 12.6667C71.9814 8.62401 68.6907 5.33334 64.648 5.33334C60.6054 5.33334 57.3147 8.62401 57.3147 12.6667C57.3147 16.7093 60.6054 20 64.648 20ZM64.6481 8.00003C67.2214 8.00003 69.3148 10.0934 69.3148 12.6667C69.3148 15.24 67.2214 17.3334 64.6481 17.3334C62.0748 17.3334 59.9814 15.24 59.9814 12.6667C59.9814 10.0934 62.0761 8.00003 64.6481 8.00003Z" fill="#ECB84C"/>
<path fill-rule="evenodd" clip-rule="evenodd" d="M15.9813 41.3333C11.5693 41.3333 7.98132 44.9213 7.98132 49.3333C7.98132 53.7453 11.5693 57.3333 15.9813 57.3333C20.3933 57.3333 23.9813 53.7453 23.9813 49.3333C23.9813 44.9213 20.3933 41.3333 15.9813 41.3333ZM15.9814 54.6667C13.0401 54.6667 10.6481 52.2747 10.6481 49.3333C10.6481 46.392 13.0401 44 15.9814 44C18.9227 44 21.3147 46.392 21.3147 49.3333C21.3147 52.2747 18.9227 54.6667 15.9814 54.6667Z" fill="#ECB84C"/>
</symbol></svg>