<svg width="79" height="80" viewBox="0 0 79 80" fill="none" xmlns="http://www.w3.org/2000/svg">
<path fill-rule="evenodd" clip-rule="evenodd" d="M27.352 38.636C24.324 35.216 20.2867 33.3333 15.9813 33.3333C11.676 33.3333 7.63867 35.216 4.612 38.636C-1.53733 45.584 -1.53733 56.8867 4.612 63.8347L15.9813 76.6787L27.3507 63.8347C33.5013 56.8867 33.5013 45.584 27.352 38.636ZM25.3546 62.0667L15.9826 72.6547L6.60931 62.0667C1.32131 56.0947 1.32131 46.376 6.60931 40.404C9.12264 37.564 12.452 36 15.9813 36C19.5106 36 22.8413 37.564 25.3533 40.404C30.6413 46.376 30.6413 56.0933 25.3546 62.0667Z" />
<path fill-rule="evenodd" clip-rule="evenodd" d="M64.32 32.676L72.9387 22.9613C77.576 17.7347 77.576 9.23333 72.9387 4.00667C70.6454 1.42267 67.584 0 64.3187 0C61.0547 0 57.9934 1.42267 55.7 4.00667C51.0627 9.23333 51.0627 17.7347 55.7 22.9613L64.32 32.676ZM57.6948 5.77735C59.4748 3.77069 61.8268 2.66669 64.3188 2.66669C66.8122 2.66669 69.1642 3.77069 70.9442 5.77735C74.7148 10.0267 74.7148 16.9414 70.9442 21.1907L64.3202 28.6587L57.6948 21.1907C53.9242 16.9414 53.9242 10.0267 57.6948 5.77735Z" />
<path fill-rule="evenodd" clip-rule="evenodd" d="M69.4627 72.6893C68.744 72.528 68.0307 72.9787 67.8694 73.6973C67.716 74.3773 67.4187 75.0027 66.9854 75.5533C66.5307 76.132 66.6294 76.9707 67.2094 77.4253C67.4547 77.6173 67.744 77.7107 68.032 77.7107C68.428 77.7107 68.8187 77.536 69.0814 77.2013C69.7534 76.348 70.2334 75.34 70.4707 74.284C70.632 73.564 70.1814 72.8507 69.4627 72.6893Z" />
<path fill-rule="evenodd" clip-rule="evenodd" d="M41.9841 41.3333C41.4067 41.332 40.8454 41.2293 40.3147 41.0267C39.6321 40.7667 38.8574 41.1093 38.5934 41.7973C38.3321 42.4853 38.6774 43.256 39.3641 43.5187C40.1987 43.836 41.0774 43.9987 41.9814 44H42.4574C43.1947 44 43.7907 43.404 43.7907 42.6667C43.7907 41.9293 43.1947 41.3333 42.4574 41.3333H41.9841Z" />
<path fill-rule="evenodd" clip-rule="evenodd" d="M38.8186 32.9013C39.06 32.9013 39.3026 32.836 39.5226 32.7C40.1133 32.332 40.7666 32.1067 41.4613 32.0293C42.1933 31.948 42.7213 31.2893 42.6413 30.5573C42.5613 29.8253 41.9066 29.3027 41.1693 29.3773C40.0733 29.4987 39.044 29.8533 38.1106 30.436C37.4853 30.8253 37.296 31.648 37.6853 32.2733C37.9386 32.6787 38.3733 32.9013 38.8186 32.9013Z" />
<path fill-rule="evenodd" clip-rule="evenodd" d="M23.4093 77.3333H20.7426C20.0053 77.3333 19.4093 77.9293 19.4093 78.6667C19.4093 79.404 20.0053 80 20.7426 80H23.4093C24.1466 80 24.7426 79.404 24.7426 78.6667C24.7426 77.9293 24.1453 77.3333 23.4093 77.3333Z" />
<path fill-rule="evenodd" clip-rule="evenodd" d="M47.3147 53.3333C47.2 53.3333 47.0867 53.336 46.9734 53.3413C46.2374 53.3707 45.6667 53.992 45.696 54.728C45.724 55.4453 46.316 56.0067 47.0267 56.0067C47.0454 56.0067 47.064 56.0067 47.0827 56.0053L49.6947 56C50.432 56 51.028 55.404 51.028 54.6667C51.028 53.9293 50.432 53.3333 49.6947 53.3333H47.3147Z" />
<path fill-rule="evenodd" clip-rule="evenodd" d="M46.648 32H49.3147C50.052 32 50.648 31.404 50.648 30.6667C50.648 29.9293 50.052 29.3333 49.3147 29.3333H46.648C45.9107 29.3333 45.3147 29.9293 45.3147 30.6667C45.3147 31.404 45.9107 32 46.648 32Z" />
<path fill-rule="evenodd" clip-rule="evenodd" d="M63.028 53.3333C62.2907 53.3333 61.6947 53.9293 61.6947 54.6667C61.6947 55.404 62.2907 56 63.028 56H65.6947C66.432 56 67.028 55.404 67.028 54.6667C67.028 53.9293 66.432 53.3333 65.6947 53.3333H63.028Z" />
<path fill-rule="evenodd" clip-rule="evenodd" d="M67.792 42.6667C67.792 41.9293 67.196 41.3333 66.4586 41.3333H63.792C63.0546 41.3333 62.4586 41.9293 62.4586 42.6667C62.4586 43.404 63.0546 44 63.792 44H66.4586C67.1946 44 67.792 43.404 67.792 42.6667Z" />
<path fill-rule="evenodd" clip-rule="evenodd" d="M55.028 56H57.6947C58.432 56 59.028 55.404 59.028 54.6667C59.028 53.9293 58.432 53.3333 57.6947 53.3333H55.028C54.2907 53.3333 53.6947 53.9293 53.6947 54.6667C53.6947 55.404 54.292 56 55.028 56Z" />
<path fill-rule="evenodd" clip-rule="evenodd" d="M57.3147 32C58.052 32 58.648 31.404 58.648 30.6667C58.648 29.9293 58.052 29.3333 57.3147 29.3333H54.648C53.9107 29.3333 53.3147 29.9293 53.3147 30.6667C53.3147 31.404 53.9107 32 54.648 32H57.3147Z" />
<path fill-rule="evenodd" clip-rule="evenodd" d="M47.792 41.3333C47.0546 41.3333 46.4586 41.9293 46.4586 42.6667C46.4586 43.404 47.0546 44 47.792 44H50.4586C51.196 44 51.792 43.404 51.792 42.6667C51.792 41.9293 51.196 41.3333 50.4586 41.3333H47.792Z" />
<path fill-rule="evenodd" clip-rule="evenodd" d="M59.792 42.6667C59.792 41.9293 59.196 41.3333 58.4586 41.3333H55.792C55.0546 41.3333 54.4586 41.9293 54.4586 42.6667C54.4586 43.404 55.0546 44 55.792 44H58.4586C59.1946 44 59.792 43.404 59.792 42.6667Z" />
<path fill-rule="evenodd" clip-rule="evenodd" d="M78.5586 47.5093C78.4413 46.7813 77.7546 46.284 77.0306 46.404C76.3026 46.52 75.808 47.2053 75.9253 47.932C75.9626 48.1693 75.984 48.4107 75.9813 48.668C75.9813 49.116 75.9173 49.5587 75.792 49.9853C75.5853 50.692 75.9893 51.4333 76.6973 51.64C76.8226 51.676 76.948 51.6933 77.072 51.6933C77.6493 51.6933 78.1813 51.3173 78.352 50.7347C78.548 50.064 78.648 49.3693 78.648 48.6773C78.6506 48.2933 78.6213 47.9 78.5586 47.5093Z" />
<path fill-rule="evenodd" clip-rule="evenodd" d="M55.4093 77.3333H52.7426C52.0053 77.3333 51.4093 77.9293 51.4093 78.6667C51.4093 79.404 52.0053 80 52.7426 80H55.4093C56.1466 80 56.7426 79.404 56.7426 78.6667C56.7426 77.9293 56.1453 77.3333 55.4093 77.3333Z" />
<path fill-rule="evenodd" clip-rule="evenodd" d="M47.4093 77.3333H44.7426C44.0053 77.3333 43.4093 77.9293 43.4093 78.6667C43.4093 79.404 44.0053 80 44.7426 80H47.4093C48.1466 80 48.7426 79.404 48.7426 78.6667C48.7426 77.9293 48.1453 77.3333 47.4093 77.3333Z" />
<path fill-rule="evenodd" clip-rule="evenodd" d="M62.0774 66.6667C62.0774 65.9293 61.4814 65.3333 60.744 65.3333H58.0774C57.34 65.3333 56.744 65.9293 56.744 66.6667C56.744 67.404 57.34 68 58.0774 68H60.744C61.48 68 62.0774 67.404 62.0774 66.6667Z" />
<path fill-rule="evenodd" clip-rule="evenodd" d="M54.0774 66.6667C54.0774 65.9293 53.4814 65.3333 52.744 65.3333H50.0774C49.34 65.3333 48.744 65.9293 48.744 66.6667C48.744 67.404 49.34 68 50.0774 68H52.744C53.48 68 54.0774 67.404 54.0774 66.6667Z" />
<path fill-rule="evenodd" clip-rule="evenodd" d="M63.3146 77.3333H60.7413C60.004 77.3333 59.408 77.9293 59.408 78.6667C59.408 79.404 60.004 80 60.7413 80L63.3693 79.9987L63.408 78.6653V79.9987C64.1453 79.9987 64.6946 79.4027 64.6946 78.6653C64.6946 77.9293 64.052 77.3333 63.3146 77.3333Z" />
<path fill-rule="evenodd" clip-rule="evenodd" d="M68.032 70.292C68.32 70.292 68.612 70.1987 68.8547 70.0067C69.4347 69.5507 69.5334 68.712 69.0787 68.1347C68.408 67.2827 67.5427 66.5787 66.5734 66.0973C65.9107 65.768 65.1134 66.0387 64.7854 66.6973C64.4574 67.3573 64.7267 68.1573 65.3854 68.4853C66.0027 68.7907 66.5547 69.24 66.9814 69.784C67.2454 70.1173 67.636 70.292 68.032 70.292Z" />
<path fill-rule="evenodd" clip-rule="evenodd" d="M73.1174 52.972C72.5454 53.212 71.94 53.3333 71.3147 53.3333H71.028C70.2907 53.3333 69.6947 53.9293 69.6947 54.6667C69.6947 55.404 70.2907 56 71.028 56H71.3147C72.296 56 73.2494 55.808 74.148 55.4307C74.828 55.1453 75.1467 54.364 74.8614 53.6853C74.5774 53.0067 73.7907 52.6867 73.1174 52.972Z" />
<path fill-rule="evenodd" clip-rule="evenodd" d="M36.6959 39.8067C37.3946 39.576 37.7759 38.8227 37.5466 38.1227C37.3933 37.6547 37.3146 37.1653 37.3146 36.672C37.3159 36.4707 37.3279 36.2693 37.3519 36.0733C37.4439 35.3427 36.9266 34.6747 36.1959 34.584C35.4426 34.5 34.7973 35.012 34.7066 35.74C34.6693 36.0413 34.6493 36.348 34.6479 36.6653C34.6479 37.4493 34.7706 38.22 35.0119 38.956C35.1973 39.5173 35.7186 39.8733 36.2786 39.8733C36.4173 39.8733 36.5586 39.8533 36.6959 39.8067Z" />
<path fill-rule="evenodd" clip-rule="evenodd" d="M31.4093 77.3333H28.7426C28.0053 77.3333 27.4093 77.9293 27.4093 78.6667C27.4093 79.404 28.0053 80 28.7426 80H31.4093C32.1466 80 32.7426 79.404 32.7426 78.6667C32.7426 77.9293 32.1453 77.3333 31.4093 77.3333Z" />
<path fill-rule="evenodd" clip-rule="evenodd" d="M44.82 67.4587C45.3267 67.4587 45.8093 67.1693 46.0333 66.68C46.3387 66.0093 46.0453 65.2187 45.376 64.9133C44.7507 64.6267 44.184 64.196 43.7387 63.6653C43.264 63.1013 42.424 63.028 41.86 63.5027C41.296 63.976 41.2227 64.8173 41.6973 65.3813C42.396 66.212 43.284 66.8893 44.2667 67.3373C44.4467 67.4187 44.6347 67.4587 44.82 67.4587Z" />
<path fill-rule="evenodd" clip-rule="evenodd" d="M74.9853 42.3173C74.0333 41.7653 72.9933 41.4413 71.8959 41.3547C71.1639 41.3013 70.5199 41.844 70.4626 42.58C70.4053 43.3147 70.9533 43.956 71.6879 44.0133C72.3839 44.068 73.0439 44.2733 73.6479 44.624C73.8586 44.7467 74.0893 44.804 74.3159 44.804C74.7759 44.804 75.2239 44.5653 75.4706 44.14C75.8399 43.504 75.6226 42.688 74.9853 42.3173Z" />
<path fill-rule="evenodd" clip-rule="evenodd" d="M39.4093 77.3333H36.7426C36.0053 77.3333 35.4093 77.9293 35.4093 78.6667C35.4093 79.404 36.0053 80 36.7426 80H39.4093C40.1466 80 40.7426 79.404 40.7426 78.6667C40.7426 77.9293 40.1453 77.3333 39.4093 77.3333Z" />
<path fill-rule="evenodd" clip-rule="evenodd" d="M42.7307 59.7853C42.8627 59.1 43.14 58.4667 43.556 57.9013C43.992 57.3093 43.8653 56.4747 43.272 56.0373C42.6787 55.6027 41.8453 55.728 41.408 56.3213C40.756 57.2093 40.3187 58.2053 40.1107 59.284C39.972 60.0067 40.4453 60.7053 41.1693 60.8453C41.2533 60.8613 41.3387 60.8693 41.4213 60.8693C42.048 60.8667 42.6067 60.4227 42.7307 59.7853Z" />
<path fill-rule="evenodd" clip-rule="evenodd" d="M64.648 20C68.6907 20 71.9814 16.7093 71.9814 12.6667C71.9814 8.62401 68.6907 5.33334 64.648 5.33334C60.6054 5.33334 57.3147 8.62401 57.3147 12.6667C57.3147 16.7093 60.6054 20 64.648 20ZM64.6481 8.00003C67.2214 8.00003 69.3148 10.0934 69.3148 12.6667C69.3148 15.24 67.2214 17.3334 64.6481 17.3334C62.0748 17.3334 59.9814 15.24 59.9814 12.6667C59.9814 10.0934 62.0761 8.00003 64.6481 8.00003Z" />
<path fill-rule="evenodd" clip-rule="evenodd" d="M15.9813 41.3333C11.5693 41.3333 7.98132 44.9213 7.98132 49.3333C7.98132 53.7453 11.5693 57.3333 15.9813 57.3333C20.3933 57.3333 23.9813 53.7453 23.9813 49.3333C23.9813 44.9213 20.3933 41.3333 15.9813 41.3333ZM15.9814 54.6667C13.0401 54.6667 10.6481 52.2747 10.6481 49.3333C10.6481 46.392 13.0401 44 15.9814 44C18.9227 44 21.3147 46.392 21.3147 49.3333C21.3147 52.2747 18.9227 54.6667 15.9814 54.6667Z" />
</svg>
