<svg width="149" height="27" viewBox="0 0 149 27" fill="none" xmlns="http://www.w3.org/2000/svg">
<path d="M12.784 6.892V26H6.97V6.892H0.17V1.928H19.584V6.892H12.784ZM30.34 15.596C30.34 14.712 30.0566 13.9527 29.49 13.318C28.946 12.6833 28.1186 12.366 27.008 12.366C26.464 12.366 25.9653 12.4567 25.512 12.638C25.0586 12.7967 24.662 13.0233 24.322 13.318C23.982 13.6127 23.71 13.964 23.506 14.372C23.302 14.7573 23.1886 15.1653 23.166 15.596H30.34ZM35.474 17.738C35.474 17.9647 35.474 18.1913 35.474 18.418C35.474 18.6447 35.4626 18.86 35.44 19.064H23.166C23.2113 19.54 23.3473 19.9707 23.574 20.356C23.8233 20.7413 24.1293 21.0813 24.492 21.376C24.8773 21.648 25.2966 21.8633 25.75 22.022C26.226 22.1807 26.7133 22.26 27.212 22.26C28.096 22.26 28.844 22.1013 29.456 21.784C30.068 21.444 30.5666 21.0133 30.952 20.492L34.828 22.94C34.0346 24.096 32.9806 24.9913 31.666 25.626C30.374 26.238 28.8666 26.544 27.144 26.544C25.8746 26.544 24.6733 26.3513 23.54 25.966C22.4066 25.558 21.4093 24.98 20.548 24.232C19.7093 23.4613 19.0406 22.5207 18.542 21.41C18.066 20.2993 17.828 19.03 17.828 17.602C17.828 16.2193 18.066 14.9727 18.542 13.862C19.018 12.7287 19.664 11.7767 20.48 11.006C21.296 10.2127 22.2593 9.60067 23.37 9.17C24.4806 8.73933 25.682 8.524 26.974 8.524C28.2206 8.524 29.3653 8.73933 30.408 9.17C31.4506 9.578 32.346 10.1787 33.094 10.972C33.842 11.7653 34.42 12.7287 34.828 13.862C35.2586 14.9953 35.474 16.2873 35.474 17.738ZM48.8939 14.066C48.4405 13.6353 47.9079 13.2727 47.2959 12.978C46.6839 12.6833 46.0379 12.536 45.3579 12.536C44.8365 12.536 44.3492 12.638 43.8959 12.842C43.4652 13.046 43.2499 13.3973 43.2499 13.896C43.2499 14.372 43.4879 14.712 43.9639 14.916C44.4625 15.12 45.2559 15.3467 46.3439 15.596C46.9785 15.732 47.6132 15.9247 48.2479 16.174C48.9052 16.4233 49.4945 16.752 50.0159 17.16C50.5372 17.568 50.9565 18.0667 51.2739 18.656C51.5912 19.2453 51.7499 19.948 51.7499 20.764C51.7499 21.8293 51.5345 22.736 51.1039 23.484C50.6732 24.2093 50.1065 24.7987 49.4039 25.252C48.7239 25.7053 47.9532 26.034 47.0919 26.238C46.2305 26.442 45.3692 26.544 44.5079 26.544C43.1252 26.544 41.7652 26.3287 40.4279 25.898C39.1132 25.4447 38.0139 24.7873 37.1299 23.926L40.2579 20.628C40.7565 21.172 41.3685 21.6253 42.0939 21.988C42.8192 22.3507 43.5899 22.532 44.4059 22.532C44.8592 22.532 45.3012 22.43 45.7319 22.226C46.1852 21.9993 46.4119 21.614 46.4119 21.07C46.4119 20.5487 46.1399 20.1633 45.5959 19.914C45.0519 19.6647 44.2019 19.404 43.0459 19.132C42.4565 18.996 41.8672 18.8147 41.2779 18.588C40.6885 18.3613 40.1559 18.0553 39.6799 17.67C39.2265 17.2847 38.8525 16.8087 38.5579 16.242C38.2632 15.6753 38.1159 14.9953 38.1159 14.202C38.1159 13.182 38.3312 12.3207 38.7619 11.618C39.1925 10.8927 39.7479 10.3033 40.4279 9.85C41.1079 9.39667 41.8559 9.068 42.6719 8.864C43.5105 8.63733 44.3379 8.524 45.1539 8.524C46.4232 8.524 47.6585 8.728 48.8599 9.136C50.0839 9.52133 51.1152 10.1107 51.9539 10.904L48.8939 14.066ZM61.021 13.25V19.71C61.021 20.5033 61.1683 21.104 61.463 21.512C61.7803 21.8973 62.3356 22.09 63.129 22.09C63.401 22.09 63.6843 22.0673 63.979 22.022C64.2963 21.9767 64.557 21.9087 64.761 21.818L64.829 25.898C64.4436 26.034 63.9563 26.1473 63.367 26.238C62.7776 26.3513 62.1883 26.408 61.599 26.408C60.4656 26.408 59.5136 26.272 58.743 26C57.9723 25.7053 57.349 25.2973 56.873 24.776C56.4196 24.232 56.091 23.5973 55.887 22.872C55.683 22.124 55.581 21.2967 55.581 20.39V13.25H52.861V9.068H55.547V4.614H61.021V9.068H64.999V13.25H61.021ZM74.7254 21.104H74.7934L80.4374 1.928H84.1434L89.7534 21.104H89.8214L95.1254 1.928H98.6954L91.6234 26H88.1214L82.2734 6.654H82.2054L76.3574 26H72.8554L65.7834 1.928H69.4214L74.7254 21.104ZM116.89 17.908C116.89 19.1547 116.664 20.2993 116.21 21.342C115.78 22.3847 115.168 23.2913 114.374 24.062C113.604 24.81 112.686 25.3993 111.62 25.83C110.555 26.238 109.41 26.442 108.186 26.442C106.962 26.442 105.818 26.238 104.752 25.83C103.687 25.3993 102.769 24.81 101.998 24.062C101.228 23.2913 100.616 22.3847 100.162 21.342C99.7317 20.2993 99.5164 19.1547 99.5164 17.908C99.5164 16.6613 99.7317 15.528 100.162 14.508C100.616 13.4653 101.228 12.57 101.998 11.822C102.769 11.074 103.687 10.496 104.752 10.088C105.818 9.65733 106.962 9.442 108.186 9.442C109.41 9.442 110.555 9.65733 111.62 10.088C112.686 10.496 113.604 11.074 114.374 11.822C115.168 12.57 115.78 13.4653 116.21 14.508C116.664 15.528 116.89 16.6613 116.89 17.908ZM113.558 17.908C113.558 17.1373 113.434 16.4007 113.184 15.698C112.958 14.9953 112.618 14.3833 112.164 13.862C111.711 13.318 111.144 12.8873 110.464 12.57C109.807 12.2527 109.048 12.094 108.186 12.094C107.325 12.094 106.554 12.2527 105.874 12.57C105.217 12.8873 104.662 13.318 104.208 13.862C103.755 14.3833 103.404 14.9953 103.154 15.698C102.928 16.4007 102.814 17.1373 102.814 17.908C102.814 18.6787 102.928 19.4153 103.154 20.118C103.404 20.8207 103.755 21.444 104.208 21.988C104.662 22.532 105.217 22.9627 105.874 23.28C106.554 23.5973 107.325 23.756 108.186 23.756C109.048 23.756 109.807 23.5973 110.464 23.28C111.144 22.9627 111.711 22.532 112.164 21.988C112.618 21.444 112.958 20.8207 113.184 20.118C113.434 19.4153 113.558 18.6787 113.558 17.908ZM121.322 13.352C121.322 12.9213 121.311 12.366 121.288 11.686C121.266 11.006 121.232 10.4053 121.186 9.884H124.212C124.258 10.292 124.292 10.768 124.314 11.312C124.337 11.8333 124.348 12.264 124.348 12.604H124.45C124.904 11.652 125.561 10.8927 126.422 10.326C127.306 9.73667 128.292 9.442 129.38 9.442C129.879 9.442 130.298 9.48733 130.638 9.578L130.502 12.536C130.049 12.4227 129.562 12.366 129.04 12.366C128.27 12.366 127.601 12.5133 127.034 12.808C126.468 13.08 125.992 13.454 125.606 13.93C125.244 14.406 124.972 14.9613 124.79 15.596C124.609 16.208 124.518 16.854 124.518 17.534V26H121.322V13.352ZM136.905 16.888H137.007L143.773 9.884H148.057L140.509 17.194L148.703 26H144.283L137.007 17.636H136.905V26H133.709V0.295999H136.905V16.888Z" fill="#37C491"/>
</svg>
