<svg width="16" height="16" viewBox="0 0 16 16" fill="none" xmlns="http://www.w3.org/2000/svg">
<path fill-rule="evenodd" clip-rule="evenodd" d="M8 0C3.58882 0 0 3.58882 0 8C0 12.4109 3.58882 16 8 16C12.4109 16 16 12.4109 16 8C16 3.58882 12.4115 0 8 0ZM9.98947 8.28167H8.68793C8.68793 10.3611 8.68793 12.9207 8.68793 12.9207H6.75931C6.75931 12.9207 6.75931 10.3859 6.75931 8.28167H5.84253V6.6421H6.75931V5.5816C6.75931 4.82207 7.12022 3.63525 8.70566 3.63525L10.1348 3.64073V5.23229C10.1348 5.23229 9.26636 5.23229 9.0975 5.23229C8.92865 5.23229 8.68858 5.31672 8.68858 5.67892V6.64242H10.158L9.98947 8.28167Z" fill="#D3D3D3"/>
</svg>
