<svg width="80" height="76" viewBox="0 0 80 76" fill="none" xmlns="http://www.w3.org/2000/svg">
<path fill-rule="evenodd" clip-rule="evenodd" d="M74.4828 0.0376892H68.9656H66.0691H57.9311H55.1725H46.8966H44.138H35.862H33.1034H24.8275H22.0689H13.7931H11.0345H5.37937C2.34484 0.0376892 0 2.38446 0 5.42149V16.603C0 18.5357 0.827656 20.4682 2.20688 21.7107C2.80594 22.1904 3.45734 22.5917 4.13797 22.8924V30.4075V74.5818C4.13797 75.4101 4.68969 75.9623 5.51734 75.9623H12.4139H31.7242H74.4828C75.3105 75.9623 75.8622 75.4101 75.8622 74.5818V30.4078V30.4077V22.896C78.2812 21.7327 80 19.1595 80 16.327V5.42149C80 2.38446 77.6552 0.0376892 74.4828 0.0376892ZM57.9312 2.79874H66.0691V16.6032C66.0691 16.8805 66.0912 17.1574 66.1293 17.4326C65.7622 19.3599 64.1288 20.7446 62.0691 20.7446C59.7243 20.7446 57.9312 18.95 57.9312 16.6032V2.79874ZM46.8965 2.79874H55.1724V16.6032C55.1724 18.95 53.3793 20.7446 51.0345 20.7446C48.6896 20.7446 46.8965 18.95 46.8965 16.6032V2.79874ZM35.8621 2.79874H44.138V16.6032C44.138 18.95 42.3449 20.7446 40 20.7446C37.6552 20.7446 35.8621 18.95 35.8621 16.6032V2.79874ZM24.8276 2.79874H33.1036V16.6032C33.1036 18.95 31.3104 20.7446 28.9656 20.7446C26.6208 20.7446 24.8276 18.95 24.8276 16.6032V2.79874ZM13.7932 2.79874H22.0691V16.6032C22.0691 18.95 20.276 20.7446 17.9312 20.7446C15.5863 20.7446 13.7932 18.95 13.7932 16.6032V16.327V2.79874ZM2.75854 16.6031V5.42152C2.75854 3.90308 3.86198 2.79874 5.37917 2.79874H11.0343V16.327C11.0343 18.3916 9.58808 20.2145 7.70964 20.6692C7.50526 20.7074 7.29495 20.7315 7.07948 20.7401C6.03698 20.7033 4.90823 20.411 4.13776 19.6401C3.31026 18.9498 2.75854 17.7074 2.75854 16.6031ZM7.58617 23.5053C8.13211 23.4397 8.6607 23.3045 9.16383 23.1098C10.4588 22.6521 11.5971 21.8236 12.3968 20.7657C13.6449 22.4387 15.6426 23.5053 17.931 23.5053C20.2093 23.5053 22.199 22.4478 23.4482 20.7874C24.6974 22.4478 26.6871 23.5053 28.9654 23.5053C31.2437 23.5053 33.2334 22.4478 34.4826 20.7874C35.7318 22.4478 37.7215 23.5053 39.9998 23.5053C42.278 23.5053 44.2677 22.4478 45.517 20.7874C46.7662 22.4478 48.7559 23.5053 51.0341 23.5053C53.3124 23.5053 55.3021 22.4478 56.5513 20.7874C57.8005 22.4478 59.7902 23.5053 62.0685 23.5053C64.3402 23.5053 66.3248 22.4538 67.5746 20.8016C67.831 21.1324 68.1115 21.4389 68.4132 21.7107C68.6341 21.8877 68.863 22.0527 69.097 22.2072C70.0731 22.9002 71.2396 23.3548 72.4727 23.4721C72.4829 23.4732 72.493 23.474 72.5032 23.4749C72.5876 23.4826 72.6718 23.4899 72.7568 23.4945C72.8721 23.501 72.9874 23.5053 73.1027 23.5053V29.027H6.89648V23.5053C7.17227 23.5053 7.31023 23.5053 7.58617 23.5053ZM13.7932 73.2013V37.3097H30.3449V56.6359H27.5863C26.7587 56.6359 26.207 57.1881 26.207 58.0164C26.207 58.8448 26.7587 59.3969 27.5863 59.3969H30.3449V73.2014H13.7932V73.2013ZM73.1034 73.2013H33.1034V35.9294C33.1034 35.101 32.5516 34.5489 31.724 34.5489H12.4137C11.586 34.5489 11.0343 35.101 11.0343 35.9294V73.2014H6.89648V31.788H73.1034V73.2013ZM77.2415 16.327C77.2415 18.3667 75.991 19.9885 74.3054 20.5596C74.2267 20.5668 74.1479 20.5802 74.069 20.6065C73.8659 20.7082 73.5882 20.7347 73.3457 20.7418C72.287 20.7141 71.13 20.4257 70.3449 19.6401C69.5173 18.9498 68.9656 17.7074 68.9656 16.6031V2.79874H74.6207C76.1379 2.79874 77.2414 4.04116 77.2414 5.42152V16.327H77.2415Z" />
<path fill-rule="evenodd" clip-rule="evenodd" d="M38.6207 67.6796H45.5173H62.069H68.9656C69.7932 67.6796 70.345 67.1274 70.345 66.2991V35.9294C70.345 35.1011 69.7932 34.5489 68.9656 34.5489H60.6896H46.8965H38.6206C37.7929 34.5489 37.2412 35.1011 37.2412 35.9294V66.2992C37.2415 67.1274 37.7932 67.6796 38.6207 67.6796ZM57.9311 60.7773C58.7588 60.7773 59.3105 60.2252 59.3105 59.3968C59.3105 58.5685 58.7588 58.0163 57.9311 58.0163H49.6552C48.8275 58.0163 48.2758 58.5685 48.2758 59.3968C48.2758 60.2252 48.8275 60.7773 49.6552 60.7773H52.4138V64.9187H46.8575C46.5855 60.0025 44.8704 55.8972 42.3447 53.8751C45.5993 51.1391 47.9925 44.959 48.2514 37.3098H59.3333C59.5786 44.959 61.8566 51.1391 65.2413 53.8751C62.7158 55.8972 61.0005 60.0025 60.7285 64.9187H55.1722V60.7773H57.9311ZM67.5865 64.9187H63.4485C63.8622 60.2251 65.6554 56.774 67.5865 55.6697V64.9187ZM67.5863 37.3098V52.0805C64.8277 50.5621 62.3449 45.0402 62.0691 37.3098H67.5863ZM40 37.3098H45.5172C45.2413 45.0403 42.6206 50.5621 40 52.0805V37.3098ZM40 55.6697C42.0689 56.774 43.862 60.2251 44.138 64.9187H40V55.6697Z" />
<path fill-rule="evenodd" clip-rule="evenodd" d="M27.5862 49.7337V41.451C27.5862 40.6226 27.0345 40.0705 26.2068 40.0705H17.9309C17.1032 40.0705 16.5515 40.6226 16.5515 41.451V49.7337C16.5515 50.5621 17.1032 51.1142 17.9309 51.1142H26.2068C27.0345 51.1142 27.5862 50.5621 27.5862 49.7337ZM24.8275 48.3534H19.3103V42.8316H24.8275V48.3534Z" />
</svg>
