<svg width="17" height="16" viewBox="0 0 17 16" fill="none" xmlns="http://www.w3.org/2000/svg">
<path fill-rule="evenodd" clip-rule="evenodd" d="M17 7.44828C17 11.5553 13.1869 14.8966 8.5 14.8966C7.29215 14.8966 6.12595 14.6786 5.03115 14.2486C3.10278 15.3321 0.437466 15.7057 0.322716 15.7214C0.309399 15.7233 0.296366 15.7241 0.283333 15.7241C0.177082 15.7241 0.0779171 15.6659 0.0297508 15.5713C-0.0246487 15.4651 -0.00311661 15.3368 0.0830173 15.2532C0.734684 14.6188 1.18348 13.2803 1.35093 11.477C0.466366 10.2745 0 8.88386 0 7.44828C0 3.34124 3.8131 0 8.5 0C13.1869 0 17 3.34124 17 7.44828ZM5.66663 7.44817C5.66663 6.83962 5.15833 6.34473 4.53329 6.34473C3.90826 6.34473 3.39996 6.83962 3.39996 7.44817C3.39996 8.05673 3.90826 8.55162 4.53329 8.55162C5.15833 8.55162 5.66663 8.05673 5.66663 7.44817ZM9.6333 7.44817C9.6333 6.83962 9.125 6.34473 8.49997 6.34473C7.87493 6.34473 7.36663 6.83962 7.36663 7.44817C7.36663 8.05673 7.87493 8.55162 8.49997 8.55162C9.125 8.55162 9.6333 8.05673 9.6333 7.44817ZM13.6 7.44817C13.6 6.83962 13.0917 6.34473 12.4666 6.34473C11.8416 6.34473 11.3333 6.83962 11.3333 7.44817C11.3333 8.05673 11.8416 8.55162 12.4666 8.55162C13.0917 8.55162 13.6 8.05673 13.6 7.44817Z" fill="#D3D3D3"/>
</svg>
