<svg width="94" height="72" viewBox="0 0 94 72" fill="none" xmlns="http://www.w3.org/2000/svg">
<path fill-rule="evenodd" clip-rule="evenodd" d="M93.5271 25.1102C93.05 24.2279 92.2594 23.5845 91.3007 23.2992L13.6323 0.177142C13.2857 0.0740558 12.9275 0.0214844 12.5681 0.0214844C10.923 0.0214844 9.44763 1.12846 8.97991 2.71314L0.154605 32.6098C-0.403478 34.5006 0.596154 36.4869 2.399 37.1835V68.2014C2.399 70.2741 4.07825 71.9607 6.14238 71.9607H87.1517C89.2159 71.9607 90.8951 70.2741 90.8951 68.2014V37.9015L93.8259 27.9723C94.1107 27.0091 94.0044 25.9927 93.5271 25.1102ZM88.164 68.2014C88.164 68.7618 87.7099 69.2178 87.1518 69.2178H66.3025V67.5817C66.3025 66.8244 65.6912 66.2103 64.9369 66.2103C64.1826 66.2103 63.5713 66.8244 63.5713 67.5817V69.2178H6.14228C5.58419 69.2178 5.13013 68.7618 5.13013 68.2014V38.0123L17.7566 41.7712L16.8728 42.6587L10.6982 41.9794L9.41953 43.0192L14.333 45.2091L12.6164 46.9332L10.7856 46.7534C10.7544 46.7504 10.7242 46.7623 10.7023 46.7851L10.0614 47.4288C10.0199 47.4674 10.0168 47.5328 10.0552 47.5753C10.0648 47.5858 10.0764 47.594 10.0891 47.5995L11.6824 48.3278C11.6876 48.5895 11.7891 48.8494 11.9876 49.0489C12.1865 49.2482 12.4453 49.3504 12.7057 49.3556L13.4326 50.9536C13.4561 51.0059 13.5171 51.029 13.5687 51.0059C13.5799 51.0007 13.5904 50.994 13.599 50.9854L14.2399 50.3376C14.2625 50.3159 14.2738 50.2855 14.2716 50.2542L14.0922 48.4194L15.8104 46.6937L17.9913 51.6283L19.0267 50.344L18.3504 44.1431L20.0358 42.4503L22.8731 43.2948V44.0446C22.8731 44.2971 23.0771 44.5017 23.3283 44.5017H26.927L37.2772 47.5828H23.3283C23.0771 47.5828 22.8731 47.7876 22.8731 48.04V50.9508C22.8731 51.2034 23.0771 51.408 23.3283 51.408H50.1265L63.6138 55.4231C63.587 55.5303 63.571 55.642 63.571 55.7577V61.6697C63.571 62.427 64.1824 63.0411 64.9367 63.0411C65.6909 63.0411 66.3023 62.427 66.3023 61.6697V56.2233L80.3483 60.4048C80.695 60.5081 81.0535 60.5604 81.4128 60.5604C83.0577 60.5604 84.533 59.4537 85.0012 57.8692L88.164 47.1545V68.2014ZM91.2076 27.1925L82.383 57.0894C82.2562 57.5182 81.8574 57.8176 81.4131 57.8176C81.3164 57.8176 81.2194 57.8032 81.1248 57.7751L61.1353 51.8242L61.5983 50.2558C61.8124 49.5296 61.4002 48.7664 60.6769 48.5511C59.9543 48.3362 59.1939 48.7497 58.9795 49.4761L58.5165 51.0448L3.45618 34.6533C2.92109 34.4939 2.61451 33.9271 2.77338 33.3897L11.5982 3.4928C11.7248 3.064 12.1235 2.76434 12.5678 2.76434C12.6645 2.76434 12.7617 2.77874 12.8562 2.80686L67.9165 19.1986L67.3448 21.1353C67.1306 21.8617 67.5428 22.6249 68.2661 22.84C68.3956 22.8786 68.5263 22.8969 68.6549 22.8969C69.2439 22.8969 69.7876 22.5111 69.9636 21.915L70.5353 19.9783L90.5245 25.9291C90.784 26.0062 90.998 26.1803 91.1268 26.419C91.2558 26.6571 91.2845 26.9321 91.2076 27.1925Z" />
<path fill-rule="evenodd" clip-rule="evenodd" d="M64.0231 37.2149C63.3021 36.9993 62.5401 37.4133 62.3257 38.1399L60.6528 43.808C60.4386 44.5342 60.851 45.2976 61.5741 45.5127C61.7034 45.5513 61.8343 45.5696 61.9629 45.5696C62.5519 45.5696 63.0956 45.1838 63.2716 44.5874L64.9447 38.9193C65.1586 38.1931 64.746 37.4299 64.0231 37.2149Z" />
<path fill-rule="evenodd" clip-rule="evenodd" d="M67.3693 25.8784C66.648 25.6633 65.8862 26.077 65.6718 26.8037L63.9987 32.4718C63.7846 33.1979 64.197 33.9611 64.9201 34.1762C65.0493 34.2149 65.18 34.2331 65.3088 34.2331C65.8979 34.2331 66.4416 33.8473 66.6175 33.2512L68.2906 27.5831C68.5048 26.8569 68.0924 26.0937 67.3693 25.8784Z" />
<path fill-rule="evenodd" clip-rule="evenodd" d="M13.3581 15.053L14.6796 16.2057C14.6104 16.4581 14.6343 16.736 14.7683 16.984C14.9024 17.232 15.1216 17.4041 15.3699 17.4832L15.6148 19.2224C15.6225 19.2793 15.6742 19.3193 15.7304 19.3115C15.7425 19.3097 15.7543 19.3063 15.7652 19.3006L16.563 18.8624C16.5907 18.848 16.6103 18.8222 16.6169 18.7913L16.9642 16.9808L19.1001 15.8171L19.7945 21.1705L21.1505 20.2345L22.2571 14.0962L24.6028 12.8178C25.1099 12.5417 25.2979 11.9045 25.0227 11.3952C24.7476 10.8859 24.113 10.6969 23.6059 10.9733L21.2602 12.2519L15.5324 9.83817L14.0122 10.4702L18.1034 13.9723L15.9698 15.1355L14.2653 14.4402C14.2362 14.4286 14.2039 14.4313 14.1766 14.4469L13.38 14.8807C13.3292 14.9061 13.3078 14.9678 13.3326 15.0194C13.3385 15.0325 13.3474 15.0439 13.3581 15.053Z" />
<path fill-rule="evenodd" clip-rule="evenodd" d="M55.8231 42.0841L8.74226 28.0679C8.50214 27.9968 8.24791 28.1342 8.17644 28.3764L7.35252 31.1673C7.31815 31.2834 7.33135 31.4087 7.38893 31.5154C7.44652 31.6219 7.54393 31.7012 7.65978 31.7355L54.7408 45.7515C54.7831 45.7643 54.8268 45.7705 54.8701 45.7705C54.9452 45.7705 55.0198 45.7518 55.0872 45.7152C55.1933 45.6574 55.2723 45.5595 55.3066 45.4434L56.1303 42.6526C56.2016 42.41 56.0641 42.1559 55.8231 42.0841Z" />
<path fill-rule="evenodd" clip-rule="evenodd" d="M57.7778 35.4624L10.6967 21.4462C10.5811 21.4119 10.4564 21.4249 10.3503 21.4828C10.2443 21.5406 10.1653 21.6384 10.1312 21.7545L9.30723 24.5458C9.23576 24.7879 9.37323 25.0423 9.61426 25.1138L56.6953 39.1296C56.7379 39.1424 56.7813 39.1486 56.8246 39.1486C56.8997 39.1486 56.9743 39.1298 57.0417 39.0933C57.1478 39.0354 57.2267 38.9376 57.2611 38.8215L58.0848 36.0306C58.1563 35.7886 58.0188 35.5342 57.7778 35.4624Z"/>
<path fill-rule="evenodd" clip-rule="evenodd" d="M59.7319 28.8407L26.0565 18.8155C25.8157 18.744 25.5621 18.8816 25.4906 19.1241L24.6667 21.915C24.6324 22.0311 24.6456 22.1563 24.7031 22.2629C24.7607 22.3694 24.8581 22.4487 24.974 22.483L58.6501 32.5083C58.6927 32.5211 58.7361 32.5273 58.7794 32.5273C58.8545 32.5273 58.9292 32.5086 58.9965 32.472C59.1026 32.4142 59.1816 32.3161 59.2159 32.2L60.0392 29.4089C60.1104 29.1669 59.9729 28.9127 59.7319 28.8407Z" />
<path fill-rule="evenodd" clip-rule="evenodd" d="M60.7335 25.9054C60.9297 25.9054 61.1111 25.7767 61.1696 25.5781L61.9937 22.7872C62.0281 22.6709 62.0151 22.5456 61.9576 22.4391C61.9 22.3326 61.8026 22.2533 61.6869 22.2188L28.0108 12.1936C27.7702 12.1221 27.5167 12.2599 27.445 12.5022L26.6211 15.293C26.5867 15.4092 26.5999 15.5344 26.6575 15.6409C26.7151 15.7474 26.8125 15.8268 26.9281 15.861L60.604 25.8862C60.6472 25.8994 60.6907 25.9054 60.7335 25.9054Z" />
<path fill-rule="evenodd" clip-rule="evenodd" d="M58.4531 61.3957H9.3473C9.09579 61.3957 8.89209 61.6005 8.89209 61.8528V64.7637C8.89209 65.0162 9.09579 65.2208 9.3473 65.2208H58.4531C58.7044 65.2208 58.9083 65.0162 58.9083 64.7637V61.8528C58.9083 61.6002 58.7044 61.3957 58.4531 61.3957Z" />
<path fill-rule="evenodd" clip-rule="evenodd" d="M58.4531 54.4892L9.3473 54.4889C9.22667 54.4889 9.11082 54.5372 9.02547 54.6229C8.94011 54.7086 8.89209 54.8249 8.89209 54.9461V57.8572C8.89209 58.1095 9.09579 58.3143 9.3473 58.3143H58.4531C58.7044 58.3143 58.9083 58.1095 58.9083 57.8572V54.9463C58.9083 54.694 58.7044 54.4892 58.4531 54.4892Z" />
</svg>
